<!-- codenamesduet logo — a cat-face mask ("gato"), fitting the spy theme.
     Cropped to the artwork's bounding box (the source was a slide
     export with a full-canvas background rect, hence the whitespace)
     and run through svgo. GameLogo renders this via <img>, so the
     path's black fill is what shows. -->
<svg xmlns="http://www.w3.org/2000/svg" width="22633" height="21769" fill-rule="evenodd" viewBox="0 0 22633 21769"><g transform="translate(-1899 -3002)"><path d="M2346 8880c1890 1506 4590 2289 7418 2957 1491 360 2765 714 4189 674 2295-67 4229-563 5816-1471 717-321 1298-869 1786-1340 778-748 1566-1405 2435-2032 586-427 622-526 438 116-292 1037-701 2031-1360 3271-59 111-106 224-158 339-184 290-75 347 249 332 354-10 628-395 979-330 18 5 32 14 39 26 42 57-29 195-149 361-94 94-209 207-329 338-530 523-881 469-1469 718-574 331-875 724-1005 1066-124 351-66 712-12 1040 245 1501 1181 2948 1123 3969-39 301-99 642-267 872-192 242-503 442-694 644-216 212-158 493-182 719l-38 357c-5 294-39 407-250 166-207-237-298-592-340-1000 277-1605-1123-1558-1719-1414-619 224-1211 666-1614 1081-180 146-239 309-342 472-175 317-489 597-738 760-239 93-394 290-574 419-373 269-839 375-1355 391-245-63-636-11-861-77-174-52-260-180-390-343-1724-2159-2756-2393-3729-2467-814-44-1631-56-2595 1293-477 327-825 465-1150 568-310-83-319-212-71-407 53-41 198-202 157-358-256-294-205-878-177-1491-30-296 144-558 254-805 301-671 518-1339 749-1976 135-447 414-803 340-1232-102-583-511-911-997-1175-677-415-1616-392-2595-302-115-101-106-217 11-350 369-266 833-261 1268-331 241 26 240-293 168-362-1553-973-2547-2612-2678-3649-95-543 138-261 419-37m7288 2939c-412-685-697-1443-986-2216-208-607-493-1128-686-1685-443-1274-284-2667 178-3749 243-629 655-1072 1230-1159 363 2 647 62 851 183 534 407 418 1298 203 1762-358 171-256-540-372-1007-218-691-1030-371-1292 66-465 789-531 1907-485 2620 24 270 76 538 148 803 324 866 564 1727 954 2503 340 678 774 1320 1128 1991-256-1564-874-3174-521-4569 55-219 153-453 325-661 205-154 580-354 832-358 315 0 572 253 720 526 118 345 132 917-276 1096-354 105-295-30-219-260 140-431 108-644-19-741-516-287-813 287-901 640-128 524 14 1083-36 1610 74 1152 516 2009 821 2966l326 79c-82-402-204-779 93-1130 140-114 333-151 551 114 21 103 161 243 43 300-176 78-187-34-277-145-96-87-151-72-187-27-51 94-94 203-91 296 2 57 13 119 19 175-2 141 64 315 111 471zm7645 225c-313-739-755-2383-922-3137-111-568-295-1066-399-1585-236-1194 43-2439 545-3376 270-548 663-911 1152-938 304 35 538 114 695 242 405 417 214 1212-15 1612-318 123-158-511-206-943-111-644-825-429-1091-59-472 674-645 1678-681 2329-9 245 6 492 38 738 182 813 292 1613 537 2351 216 644 539 2016 766 2654-52-1435-428-3703 14-4931 71-192 175-395 343-569 189-121 523-269 734-249 264 29 454 280 549 542 64 321 16 840-346 966-309 63-246-55-158-257 163-375 160-571 65-672-403-304-713 188-824 499-163 462-103 980-200 1454-60 1048 194 2113 347 3006l294-150c-26-370-89-723 195-1014 132-89 296-107 452 155 7 94 108 232 4 274-155 54-153-47-216-156-72-88-121-79-155-41-52 80-99 175-107 259-19 141-18 287-1 412 3 33 7 67 11 106l-98 41-430 166-433 145zm-8839 3649 389 438c142 234 290 407 245 671-11 212-33 422 55 663 242 640 924 724 1597 865 228 61 459 145 686 274l56-3 1113-20c-28-318-59-632-134-923-173-663-629-1145-1219-1612-837-661-1579-661-2788-353m7772 2887 1587-58c277-150 569-239 823-486 367-331 628-706 748-1146 187-799 224-1515 139-2159-580-6-1089 204-1571 503-666 506-806 805-1053 1145-615 966-531 1516-673 2201m-6448-730-58-1255c18-433 148-922 681-642 89 49 169 113 237 190 365 396 250 728-85 1068-234 239-518 425-775 639m7444 569-31-1099c2-326-76-692 54-966 155-316 470-553 720-293 157 170 247 454 227 523-67 758-364 1385-970 1835m-3534 1756c288 331 646 625 1128 855 62-33 1900-1139 680-934zm-7586-7629c-394-340-943-590-1648-755 232 257 209 540 788 767 430 191 659 106 860-12m7732 10009h-1l-68-26-15-98c53-2 101 59 157-4 40-25 67-57 142-65 18 2 38 28 58 65l-27 69c-18 46-27 88 21 108 74-7 146-10 211-71l41-21c63 32 90 32 153 17 67-31 80-88 117-133 29 18 55 55 58 111l16 97c6 55-63 107-133 159 14 24 45 39 95 43l153-15 22-64c67-37 162 18 252 54l6 107 71-54 164 37h67c66 0 91 0 135 53 48 43 104 78 183 97 97 59 59 232-20 304-48 35-88 86-122 145l-101 96-30 186-63 176-164 231-135-10-106 53c-49-15-107-5-196 80-18 63-15 115-6 166-16 32-30 64-72 86l-140 178-3-20 55-104 65-74c-41 22-83 32-126 139l-9 67-48 37c-51 21-49-3-15-52 36-42-43-80-122-117l-105-71 222-160v-64l-44-16 6-86-74-42 5-44-41-42-120-5c-29-138-6-193 19-247-30-32-48-67-57-106h-110c-25-39-11-76 5-113-16-38-44-69-122-69-73-11-142-42-205-90-9-71 9-182-74-114l-117 68c-79 11-126 26-162 2v-69l-47 32-84-37c-29-42-47-89-47-149 7-49-11-84 68-167 55-28 108-37 162-35l28-158c-55-24-42-72-64-106 13-37 33-61 74-44l-63-69c59 7 121 22 170-10 28 32 30 88 131 64 36-3 77-25 126-86m895 109-6-7c47 0 97-10 123 31l-38 56c-23 26-54 36-90 40-40-6-63-22-74-48l36-45z" style="fill:#000"/><g style="fill:#090000"><path d="m2342 8885 4-5zM2349 8875c945 753 2092 1325 3356 1792l-2 6-2 5c-1266-467-2414-1040-3359-1793l4-5z"/><path d="M5705 10667c1264 467 2646 830 4060 1164l-1 6-2 6c-1414-334-2796-697-4061-1165l2-5zM9765 11831l-1 6z"/><path d="M9765 11831c1413 341 2631 677 3966 677v12c-1336 0-2555-336-3969-677l2-6zM13731 12508c74 0 147-1 221-3l1 6v6q-111 3-222 3v-6zM13953 12517v-6z"/><path d="M13952 12505c1147-34 2204-174 3173-420l1 6 2 6c-970 246-2027 386-3175 420v-6z"/><path d="M17125 12085c968-246 1848-597 2641-1050l3 5 3 5c-794 454-1675 806-2644 1052l-2-6z"/><path d="m19766 11034 3 6-3-5z"/><path d="M19766 11034c358-160 682-377 978-613l3 5 4 5c-296 236-621 454-980 614l-2-5z"/><path d="M20744 10421c295-235 563-490 806-725l5 4 4 4c-244 236-512 491-808 727l-4-5zM21550 9696l5 4z"/><path d="M21550 9696c779-749 1567-1406 2436-2033l4 5 3 5c-869 627-1656 1283-2434 2031l-4-4zM23993 7673l-3-5z"/><path d="M23986 7663c73-53 137-101 193-143l4 5 3 5c-56 42-120 90-193 143l-3-5z"/><path d="M24179 7520c57-42 105-78 147-108l3 5 4 5c-42 30-90 66-147 108l-3-5z"/><path d="M24326 7412q30-22.5 57-39l3 5 3 5c-17 11-36 24-56 39l-4-5z"/><path d="M24383 7373c17-12 32-22 46-29l3 5 3 5c-14 8-29 17-46 29l-3-5z"/><path d="M24429 7344c14-8 27-14 38-19l2 6 2 6c-10 4-22 9-36 17l-3-5z"/><path d="M24467 7325c5-2 10-3 15-4l1 6 2 5c-4 1-9 3-14 5l-2-6z"/><path d="M24482 7321c5-1 10-2 14-2v12c-3 0-7 0-11 1l-2-5zM24496 7319c3 0 6 0 8 1l-1 6-1 6c-2-1-4-1-6-1v-6z"/><path d="M24504 7320c3 0 6 1 8 3l-3 5-2 5c-2 0-3-1-5-1l1-6z"/><path d="M24512 7323c2 1 5 2 7 4l-5 5-4 4-3-3 2-5zM24519 7327c2 2 3 4 5 7l-5 3-5 3c-1-2-2-3-4-4l4-4z"/><path d="M24524 7334c3 4 5 10 6 17l-6 1-6 1c-1-5-2-10-4-13l5-3z"/><path d="M24530 7351c1 6 2 13 2 22h-12c0-8-1-14-2-20l6-1zM24532 7373c0 8-1 18-2 28l-6-1h-6c1-10 2-19 2-27h6z"/><path d="M24530 7401c-1 10-3 22-5 34l-6-1-6-1c3-12 4-23 5-33h6z"/><path d="M24525 7435c-4 25-11 55-19 89l-6-2-6-1c8-34 15-63 19-88l6 1z"/><path d="M24506 7524c-9 34-19 72-31 116l-6-2-6-1c12-44 23-82 31-116l6 1z"/><path d="M24475 7640c-12 43-26 92-42 146l-5-2-6-2c15-53 29-102 41-145l6 1zM24422 7782l6 2z"/><path d="M24433 7786c-292 1037-701 2031-1360 3272l-5-3-6-3c659-1239 1068-2233 1360-3270l6 2zM23073 11058l-5-3z"/><path d="M23073 11058c-59 111-106 223-158 338l-5-2-6-3c52-115 99-228 158-339l6 3z"/><path d="m22915 11397-5-3 5 2z"/><path d="M22915 11397c-30 47-53 88-67 124l-6-2-5-3c15-36 37-77 68-125l5 3z"/><path d="M22848 11521c-7 17-13 34-16 49l-6-2-6-1c4-16 9-32 17-51l5 3z"/><path d="M22832 11570c-4 14-6 28-6 40h-12c0-13 2-28 6-43l6 1zM22826 11610c0 10 2 20 4 29l-6 2-5 1c-3-10-5-20-5-32h6z"/><path d="M22830 11639c3 9 7 16 12 23l-5 4-5 3c-6-8-10-17-13-27l5-1z"/><path d="M22842 11662c5 8 11 14 19 20l-4 4-3 5c-9-6-16-13-22-22l5-3z"/><path d="M22861 11682c7 5 16 11 27 15l-3 5-2 6c-11-5-21-10-29-17l3-5z"/><path d="M22888 11697c21 9 47 15 77 19l-1 6v6c-32-4-59-11-81-20l2-6z"/><path d="M22965 11716q46.5 6 108 6v12c-41 0-78-2-109-6v-6zM23073 11722c26 0 55-1 85-2l1 6v6c-31 1-59 2-86 2v-6zM23158 11720l1 6z"/><path d="M23158 11720c81-2 158-24 232-56l3 5 2 6c-76 32-154 55-236 57v-6z"/><path d="M23390 11664c75-32 148-74 220-115l3 5 3 5c-73 42-146 84-221 116l-2-6z"/><path d="M23610 11549c72-42 144-84 218-115l2 6 3 5c-74 31-145 72-217 114l-3-5z"/><path d="M23828 11434c37-15 74-28 112-37l2 6 1 5c-37 9-74 22-110 37l-3-5z"/><path d="M23940 11397c39-9 77-14 117-14v12c-39 0-77 5-114 13l-1-5zM24057 11383c27 0 54 2 82 7l-1 6-2 6c-26-5-53-7-79-7v-6zM24139 11390l-1 6z"/><path d="M24139 11390c10 3 18 7 26 11l-4 5-3 5c-6-4-14-7-22-9l2-6z"/><path d="M24165 11401c3 3 6 5 9 8l-4 4-4 5c-3-3-5-5-8-7l3-5z"/><path d="M24174 11409c3 3 6 6 8 10l-5 3-6 3c-1-3-3-5-5-7l4-5z"/><path d="m24171 11425 6-3-5 3z"/><path d="M24181 11418c5 7 8 14 11 21l-6 2-6 2c-2-7-5-13-8-18l5-3z"/><path d="M24192 11439c2 8 3 16 3 26h-12c0-8-1-16-3-22l6-2zM24195 11465c0 18-4 38-12 62l-6-2-6-2c8-22 12-42 12-58h6z"/><path d="M24183 11527c-8 23-19 48-33 76l-6-3-5-3c14-27 25-51 32-74l6 2z"/><path d="M24150 11603c-29 54-69 116-118 183l-4-3-5-4c48-66 88-128 116-182l5 3z"/><path d="m24032 11787-4-4 4 3z"/><path d="M24032 11787c-94 94-209 207-329 338l-4-4-5-4c120-131 235-244 329-338l5 4zM23703 12125l-4-4z"/><path d="M23703 12125c-133 131-255 226-372 299l-3-5-3-5c116-73 237-167 369-297l5 4z"/><path d="M23331 12424c-117 72-229 123-343 164l-2-5-2-6c113-41 225-91 341-163l3 5z"/><path d="M22988 12588c-228 83-462 132-756 256l-2-5-3-6c294-124 529-173 757-256l2 6z"/><path d="m22227 12833 3 6-3-5z"/><path d="M22233 12844c-287 165-505 346-668 528l-4-4-5-4c164-183 383-364 671-530l3 5z"/><path d="M21565 13372c-163 182-270 365-335 535l-5-2-6-2c65-172 173-356 337-539l5 4zM21219 13903l6 2z"/><path d="M21230 13907c-54 153-73 309-73 463h-12c0-155 19-312 74-467l6 2zM21157 14370c0 196 31 390 61 574l-5 1-6 1c-31-184-62-379-62-576h6zM21218 14944l-5 1z"/><path d="M21218 14944c119 728 401 1442 652 2102l-6 2-5 3c-252-661-533-1377-652-2105l6-1z"/><path d="M21870 17046c126 331 244 647 331 944l-5 2-6 2c-87-297-205-613-331-943l5-3z"/><path d="M22201 17990c88 298 143 577 143 831h-12c0-253-55-531-142-827l6-2zM22344 18821c0 32-1 63-2 93h-12c1-31 2-62 2-93h6zM22342 18915l-6-1h6z"/><path d="M22342 18915c-20 150-45 311-86 463l-6-1-5-2c40-151 65-312 85-462l6 1z"/><path d="M22256 19378c-41 152-98 296-183 411l-4-3-5-4c83-114 140-256 181-407l5 2z"/><path d="m22073 19790-4-4 4 3z"/><path d="M22073 19790c-192 242-503 442-694 644l-4-4-5-4c191-202 502-402 694-644l5 4zM21379 20434l-4-4z"/><path d="M21379 20434c-54 53-90 109-115 168l-6-2-5-2c25-61 63-119 117-172l5 4z"/><path d="M21264 20602c-25 59-39 121-46 183l-6-1-6-1c7-63 21-125 47-185l5 2z"/><path d="M21218 20785c-16 125-7 252-19 365l-6-1-6-1c12-113 3-240 19-365l6 1zM21199 21150l-6-1z"/><path d="m21199 21150-38 357-6-1-6-1 38-357 6 1z"/><path d="m21149 21505 6 1h-6zM21161 21506c-1 46-3 88-5 124h-6l-6-1c2-36 4-77 5-123h6z"/><path d="M21156 21630c-3 37-7 69-13 95l-6-2-6-1c6-25 10-57 13-93l6 1z"/><path d="M21143 21725c-3 13-7 24-11 35l-5-3-6-2c4-9 7-21 10-33l6 1z"/><path d="M21132 21760c-4 10-9 19-14 26l-5-4-5-3c5-7 9-15 13-24l6 2z"/><path d="M21118 21786c-3 4-6 7-9 10l-4-5-4-4c3-3 5-5 7-8l5 3z"/><path d="M21109 21796c-3 2-6 5-10 7l-3-5-3-6c3-1 6-3 8-5l4 4z"/><path d="M21099 21803c-4 2-7 3-11 4l-2-6-1-5c3-1 5-2 8-4l3 6z"/><path d="M21088 21807c-4 1-9 2-13 2v-12c3 0 7-1 10-1l1 5zM21075 21809c-5 0-10-1-16-2l1-6 2-6c4 1 9 2 13 2v6z"/><path d="m21059 21807-18-6 3-6 2-5c6 2 11 4 16 5l-2 6z"/><path d="M21041 21801c-12-6-25-14-39-25l4-5 3-5c14 11 26 19 37 24l-2 5z"/><path d="M21002 21776c-14-11-30-25-47-41l4-5 5-4c16 16 31 30 45 40l-3 5z"/><path d="M20955 21735c-17-17-35-36-55-59l5-4 4-4c20 22 38 42 55 58l-5 4zM20900 21676l5-4z"/><path d="M20900 21676c-52-60-97-127-135-200l5-3 5-3c38 73 83 139 134 198l-4 4z"/><path d="M20765 21476c-39-73-71-153-98-238l6-2 5-2c27 85 59 164 97 236l-5 3z"/><path d="M20667 21238c-54-170-87-361-108-565l6-1 6-1c21 204 54 394 107 563l-5 2z"/><path d="m20559 20671 6 1-6 1v-1z"/><path d="M20559 20671c24-142 35-270 35-387h12c0 117-11 247-36 389l-5-1zM20594 20284c0-109-10-208-28-298l6-1 6-1c18 90 28 190 28 300h-6z"/><path d="M20566 19986c-19-89-46-169-80-241l5-2 6-3c35 72 62 153 81 244l-6 1z"/><path d="M20486 19745q-51-106.5-123-189l5-4 5-4c47 56 89 120 124 192l-6 3z"/><path d="M20363 19556c-47-55-99-102-157-143l4-4 3-5c58 41 112 89 160 144l-5 4z"/><path d="M20206 19413c-114-81-246-134-384-168l1-6 2-6c139 34 273 89 388 171l-3 5z"/><path d="M19822 19245c-138-33-283-47-422-47v-12c140 0 286 14 425 47l-2 6zM19400 19198c-208 0-405 30-553 66l-1-6-2-6c149-36 347-66 556-66v6zM18844 19252l2 6z"/><path d="M18848 19264c-309 111-612 278-887 468l-3-5-4-5c276-191 580-358 890-470l2 6z"/><path d="M17961 19732c-275 190-524 404-725 611l-4-4-5-4c202-208 451-423 727-613l4 5z"/><path d="m17235 20344-3-5 4 4z"/><path d="M17235 20344c-89 72-148 149-198 228l-5-3-5-4c50-80 110-157 201-231l4 5z"/><path d="M17037 20572c-50 79-91 161-142 242l-5-3-5-3c51-82 92-163 142-243l5 4z"/><path d="m16885 20808 5 3-6-3z"/><path d="M16895 20814c-88 159-211 309-342 439l-5-4-4-5c131-129 253-278 340-436l6 3z"/><path d="M16553 21253c-132 130-273 241-398 323l-3-5-4-5c124-81 265-192 396-322l4 5z"/><path d="m16154 21576-2-5 3 5z"/><path d="M16154 21576c-119 47-217 119-308 195l-4-4-3-5c91-77 190-150 310-197l3 6z"/><path d="M15846 21771c-91 78-175 159-265 224l-3-5-4-5c90-64 174-146 265-223l3 5zM15574 21985l4 5z"/><path d="M15581 21995c-187 135-397 229-626 291l-1-6-2-6c227-61 436-155 622-289l4 5z"/><path d="M14955 22286c-228 62-474 93-732 101v-6l-1-6c258-8 503-39 730-101l2 6z"/><path d="m14221 22387 2-6v6h-1z"/><path d="M14221 22387c-245-63-636-11-861-77l2-6 1-6c225 66 616 14 861 77l-1 6zM13360 22310l2-6z"/><path d="M13360 22310c-44-14-83-31-118-54l4-5 3-5c34 22 71 39 114 52l-1 6z"/><path d="M13242 22256c-35-22-66-48-96-78l4-4 4-4c30 29 61 55 95 76l-3 5z"/><path d="M13146 22178c-60-59-114-132-179-213l5-4 4-4c65 81 119 154 178 213l-4 4zM12976 21957l-4 4z"/><path d="M12967 21965c-431-540-818-959-1173-1286l4-4 5-4c354 326 742 746 1173 1286l-4 4z"/><path d="M11794 20679c-354-326-674-560-972-728l3-5 3-6c298 169 620 404 975 731l-5 4z"/><path d="M10822 19951c-297-169-570-272-830-338l1-6 2-6c261 66 535 170 833 339l-3 6z"/><path d="M9992 19613c-260-66-507-95-750-113l1-6v-6c244 18 491 47 752 113l-2 6zM9243 19488v6z"/><path d="M9242 19500c-129-7-259-13-390-13v-12c131 0 261 6 391 13v6zM8852 19487c-171 0-344 10-519 44l-1-6-2-6c176-34 350-44 522-44v6z"/><path d="M8333 19531c-175 34-353 91-534 183l-3-5-3-6c183-92 361-150 537-184l2 6z"/><path d="M7799 19714c-182 92-367 220-558 395l-4-5-4-4c191-176 378-304 560-397l3 6z"/><path d="M7241 20109c-190 175-386 398-589 681l-4-3-5-4c203-283 399-507 590-683l4 4z"/><path d="m6651 20792-3-5 4 3v1z"/><path d="M6651 20792c-239 164-445 280-633 368l-2-5-3-6c187-88 393-204 631-367l4 5z"/><path d="M6018 21160c-187 89-356 149-519 201l-1-6-2-6c162-51 330-111 517-200l3 6z"/><path d="m5496 21361 2-6 1 6h-1z"/><path d="M5496 21361c-42-12-78-24-109-36l2-6 2-6q46.5 19.5 108 36l-1 6z"/><path d="M5387 21325c-32-13-57-27-78-42l3-5 4-5c20 14 45 28 75 40l-2 6z"/><path d="M5309 21283c-11-8-20-16-28-24l5-4 4-4c7 8 16 15 26 22l-4 5z"/><path d="M5281 21259c-7-8-14-16-19-25l5-3 5-3c5 8 11 16 18 23l-4 4z"/><path d="M5262 21234q-9-12-12-27l5-1 6-2c3 8 6 16 11 24l-5 3z"/><path d="M5250 21207c-3-9-4-18-4-28h12c0 8 1 17 3 25l-6 2zM5246 21179c0-17 4-35 11-53l6 2 5 3c-7 16-10 32-10 48h-6z"/><path d="M5257 21126c8-18 19-37 34-56l5 3 5 4c-15 19-25 37-33 54l-5-3z"/><path d="M5291 21070c15-20 34-40 56-61l4 4 4 4q-33 31.5-54 60l-5-4z"/><path d="M5347 21009c21-21 47-43 76-66l4 5 3 5c-28 22-53 44-75 64l-4-4zM5423 20943l4 5z"/><path d="M5423 20943c6-4 12-10 20-17l4 4 4 5q-12 10.5-21 18l-3-5z"/><path d="M5443 20926c7-7 16-16 24-25l5 4 4 4c-9 10-17 18-25 26l-4-5z"/><path d="M5467 20901c18-19 37-43 54-69l5 3 5 3c-18 27-37 51-55 71l-4-4z"/><path d="M5521 20832c18-27 33-56 45-88l6 2 5 2c-12 33-28 63-46 90l-5-3z"/><path d="M5566 20744c12-31 19-64 19-97h12c0 34-8 69-20 101l-5-2zM5585 20647c0-19-2-37-7-56l6-1 5-2c5 20 8 39 8 59h-6z"/><path d="m5589 20588-5 2 4-4 1 1z"/><path d="M5579 20594c-41-47-74-101-100-161l5-3 6-2c26 59 58 112 98 158l-4 4z"/><path d="M5479 20433c-27-61-47-127-62-198l6-2 5-1c15 71 35 136 62 196l-6 2z"/><path d="M5417 20235c-30-143-40-306-40-482h12c0 175 10 337 39 479l-5 1zM5377 19753c0-205 13-428 24-654h12c-11 226-24 449-24 654h-6zM5413 19099h-6l6-1z"/><path d="M5401 19100c-3-24-4-47-4-69h12c0 22 1 45 4 67l-6 1zM5397 19031c0-68 10-134 26-198l6 1 6 2c-16 63-26 128-26 195h-6z"/><path d="M5423 18833c17-64 39-127 65-188l6 2 5 2c-25 61-48 123-64 187l-6-2z"/><path d="M5488 18645c52-122 116-240 167-354l6 3 5 2c-51 114-115 231-167 353l-5-2zM5655 18291l6 3z"/><path d="M5655 18291c301-670 518-1338 749-1975l6 2 5 2c-231 637-448 1305-749 1976l-5-2zM6415 16320l-5-2z"/><path d="M6404 16316c60-198 148-378 221-555l6 2 5 2c-73 177-161 357-221 555l-5-2z"/><path d="M6625 15761c36-88 69-175 93-263l6 1 5 2c-23 88-56 176-93 264l-5-2z"/><path d="M6718 15498c23-88 38-177 38-268h12c0 92-15 182-39 271l-5-2zM6756 15230c0-47-4-95-12-143l6-1 5-1c9 49 13 97 13 145h-6zM6755 15085l-5 1z"/><path d="M6744 15087c-26-145-70-274-130-391l5-3 5-2c61 117 106 247 131 394l-5 1z"/><path d="M6614 14696c-60-116-136-220-223-313l4-4 4-4c89 94 165 198 225 316l-5 2z"/><path d="M6391 14383c-176-188-399-335-641-467l3-5 2-5c244 132 468 280 644 469l-4 4z"/><path d="m5749 13916 4-5-3 5z"/><path d="M5749 13916c-221-136-471-224-741-279l2-6 1-6c271 55 522 144 745 281l-3 5z"/><path d="M5008 13637c-270-55-560-76-863-76v-12c304 0 595 21 866 76l-1 6zM4145 13561c-318 0-650 23-987 54v-6l-1-6c337-31 669-54 988-54v6z"/><path d="m3154 13613 4-4v6h-2z"/><path d="M3154 13613c-29-24-49-50-63-76l5-3 5-3c14 25 34 50 61 73l-4 5z"/><path d="M3091 13537c-7-14-12-27-16-41l6-2 6-1c3 13 8 26 14 38l-5 3z"/><path d="M3075 13496c-3-14-5-28-5-43h12c0 14 2 27 5 40l-6 1zM3070 13453c0-15 2-31 6-47l6 1 6 2c-4 15-6 30-6 44h-6z"/><path d="M3076 13406c4-16 10-32 18-49l5 3 6 2c-8 16-14 31-17 47l-6-2z"/><path d="M3094 13357c16-33 39-67 70-102l5 4 4 4c-30 34-53 67-68 99l-6-2z"/><path d="m3165 13254 4 5-5-4z"/><path d="M3165 13254c93-67 191-117 294-155l2 6 2 5c-101 38-199 88-291 154l-3-5z"/><path d="M3459 13099c103-38 209-65 318-85l1 6 1 6c-108 20-214 47-316 84l-2-5z"/><path d="M3777 13014c216-41 441-57 659-92l1 6 1 6c-218 35-443 51-659 92l-1-6z"/><path d="M4437 12922v6l-1-6z"/><path d="M4437 12922c9 1 18 1 27 1v12c-9 0-18 0-28-1l1-6zM4464 12923c16 0 31-1 45-5l1 6 2 6c-15 3-31 5-48 5v-6z"/><path d="M4509 12918c14-3 26-8 37-14l3 5 3 6c-12 6-26 11-40 15l-2-6z"/><path d="M4546 12904c12-6 22-13 31-22l4 5 4 4q-15 13.5-33 24l-3-6z"/><path d="M4577 12882c9-8 17-18 24-28l5 3 5 4c-8 11-16 21-26 30l-4-4z"/><path d="M4601 12854c14-21 24-45 30-70l6 2 6 1c-7 27-17 52-32 74l-5-4z"/><path d="M4631 12784c7-25 10-51 10-77h12c0 27-3 54-10 80l-6-1zM4641 12707c0-29-4-58-11-82l5-2 6-2c8 25 12 55 12 86h-6z"/><path d="M4630 12625c-4-12-8-23-13-32l5-3 5-3c6 10 10 22 14 34l-6 2z"/><path d="M4617 12593c-5-9-11-17-17-23l5-4 4-4c7 6 13 15 18 25l-5 3z"/><path d="m4609 12562-4 4 3-5z"/><path d="M4601 12571c-777-487-1414-1141-1874-1802l5-4 5-3c459 660 1095 1313 1871 1799l-3 5z"/><path d="M2727 10769c-229-331-415-664-551-979l6-2 5-3c136 315 321 647 550 977l-5 3z"/><path d="M2176 9790c-136-315-223-613-255-872l6-1 6-1c32 259 119 555 254 869l-5 3z"/><path d="m1933 8916-6 1 5-1z"/><path d="M1921 8918c-8-42-13-80-17-112l6-1 6-1c4 33 9 70 16 112l-5 1z"/><path d="M1904 8806c-3-33-5-61-5-85h12c0 23 2 51 5 83l-6 1zM1899 8721c0-22 1-40 4-55l6 1 6 1c-3 15-4 32-4 53h-6z"/><path d="M1903 8666c3-16 7-28 12-38l5 3 5 3c-4 8-8 20-10 34l-6-1z"/><path d="M1915 8628c2-5 5-10 9-13l4 4 5 4c-3 3-5 6-8 11l-5-3z"/><path d="M1924 8615c3-4 7-7 11-10l3 5 3 5c-3 2-6 5-8 8l-5-4z"/><path d="M1935 8605c4-2 8-4 13-5l1 5 2 6c-4 1-7 3-10 4l-3-5z"/><path d="M1948 8600c4-2 9-2 14-2v12c-4 0-8 0-11 1l-2-6zM1962 8598c10 0 22 2 34 7l-2 5-2 6q-16.5-6-30-6v-6z"/><path d="M1996 8605c12 4 25 11 39 19l-3 5-3 5c-13-8-26-14-37-18l2-6z"/><path d="M2035 8624c27 16 58 38 91 65l-4 5-4 4c-32-26-62-48-89-64l3-5z"/><path d="M2126 8689c66 53 143 122 223 186l-3 5-4 5c-81-65-157-134-224-187l4-4zM9629 11822l5-3-1 6-3-1z"/><path d="M9629 11822c-412-685-698-1444-987-2217l6-2 6-2c288 773 573 1530 985 2215l-5 3zM8642 9605l6-2z"/><path d="M8642 9605c-208-607-493-1128-686-1685l6-2 6-2c193 557 478 1078 686 1685l-6 2zM7968 7916l-6 2z"/><path d="M7956 7920c-181-523-262-1065-262-1598h12c0 532 80 1073 262 1594l-6 2zM7694 6322c0-768 167-1516 440-2155l6 2 5 2c-272 638-439 1385-439 2151h-6z"/><path d="m8145 4171-5-2 6 2z"/><path d="M8134 4167c61-158 133-304 215-435l5 3 5 3c-82 131-153 276-213 433l-6-2z"/><path d="M8349 3732c82-132 174-250 277-350l4 4 5 5c-103 99-195 216-276 347l-5-3z"/><path d="M8626 3382c103-101 217-184 341-248l2 5 3 6c-123 63-235 146-337 246l-5-5z"/><path d="M8967 3134c123-64 258-108 402-130l1 6 1 6q-214.5 33-399 129l-3-6z"/><path d="M9370 3004v6l-1-6zM9370 3004c182 1 344 17 486 47l-1 6-1 6c-142-31-303-46-484-47v-6z"/><path d="M9856 3051c143 31 265 76 368 137l-3 5-3 5c-102-60-223-105-364-135l1-6z"/><path d="m10225 3188-4 5 3-5z"/><path d="M10225 3188c71 54 130 117 180 187l-5 3-5 4c-49-69-108-131-178-184l4-5z"/><path d="M10405 3375c50 69 89 144 119 224l-5 2-6 2c-30-78-69-153-118-221l5-4z"/><path d="M10524 3599c61 160 86 336 86 513h-12c0-175-25-350-85-509l6-2zM10610 4112c0 156-20 313-52 458l-6-1-6-2c32-144 52-300 52-455h6z"/><path d="M10558 4570c-33 145-78 278-129 388l-5-3-6-3c51-108 96-241 128-385l6 2z"/><path d="m10426 4960-2-5 5 3-1 1z"/><path d="M10426 4960c-18 9-36 16-53 20l-1-5-2-6c16-4 33-11 51-19l3 5z"/><path d="M10373 4980c-16 5-32 7-46 7v-12c13 0 28-2 43-6l2 6zM10327 4987c-16 0-31-3-44-7l2-6 2-6c12 5 25 7 40 7v6z"/><path d="M10283 4980c-14-5-26-12-37-22l4-4 3-5c11 9 22 15 34 19l-2 6z"/><path d="M10246 4958c-11-9-21-20-31-33l5-3 5-4c9 12 18 23 28 31l-3 5z"/><path d="M10215 4925c-9-13-17-28-24-44l5-3 6-2c7 16 15 30 23 42l-5 4z"/><path d="M10191 4881c-29-65-47-155-59-259l6-1h5c13 102 30 191 59 255l-6 2z"/><path d="M10132 4622c-26-206-34-464-86-673l6-1 6-1c52 209 60 468 85 674h-5z"/><path d="m10058 3947-6 1 6-2z"/><path d="M10046 3950c-22-72-52-133-86-184l5-3 5-3c35 51 65 113 88 186l-6 2z"/><path d="M9960 3766c-34-50-74-91-117-123l4-5 3-4q67.5 48 120 126l-5 3z"/><path d="M9843 3643c-43-32-90-54-139-69l1-6 2-6c51 16 99 39 143 72l-3 4z"/><path d="M9704 3574c-50-15-102-22-156-22v-12c55 0 108 7 159 22l-2 6zM9548 3552c-74 0-150 13-226 37l-2-5-1-6c76-24 154-38 229-38v6z"/><path d="M9322 3589c-75 24-150 59-220 101l-3-5-3-5c71-43 146-78 223-102l1 6z"/><path d="M9102 3690c-70 42-135 93-193 148l-4-4-4-4c58-56 124-107 195-150l3 5z"/><path d="M8909 3838c-57 56-106 116-144 179l-5-3-5-3c38-64 88-125 146-181l4 4zM8755 4011l5 3z"/><path d="M8765 4017c-193 327-317 711-393 1100l-6-2-6-1c77-389 201-775 395-1103l5 3z"/><path d="M8372 5117c-76 388-103 781-103 1125h-12c0-345 27-738 103-1128l6 1zM8269 6242c0 140 4 271 12 392h-12c-8-120-12-252-12-392h6zM8269 6634h6l-6 1z"/><path d="M8281 6633c24 270 76 538 148 802l-6 2-6 2c-72-266-124-534-148-804l6-1zM8417 7439l6-2z"/><path d="M8429 7435c323 866 563 1726 953 2502l-5 3-5 3c-391-776-631-1638-955-2504l6-2zM9382 9937l-5 3zM9382 9937c340 678 774 1320 1128 1991l-5 3-5 3c-354-671-788-1313-1128-1991l5-3z"/><path d="m10500 11934 5-3 6-1 6 36z"/><path d="M10499 11932c-202-1231-627-2491-627-3652h12c0 1160 425 2419 627 3650l-6 1zM9872 8280c0-315 31-622 106-919l6 1 6 1c-75 297-106 603-106 917h-6zM9990 7363l-6-1z"/><path d="M9978 7361c28-110 66-224 119-336l6 2 5 3c-53 111-91 224-118 333l-6-1z"/><path d="M10097 7025c53-112 121-223 207-328l5 4 5 4c-86 103-153 213-206 325l-5-3z"/><path d="m10305 6696 4 5-5-4h1z"/><path d="M10305 6696c103-77 248-166 400-236l2 6 3 5c-151 70-295 158-397 235l-4-5z"/><path d="M10705 6460c75-35 153-65 227-87l1 6 2 6c-73 21-150 51-225 86l-3-5z"/><path d="M10932 6373c74-22 145-35 209-36v12c-63 1-133 14-206 36l-2-6zM11141 6337v6zM11141 6337c79 0 155 16 227 44l-3 6-2 5c-70-27-144-43-222-43v-6z"/><path d="M11368 6381c71 28 138 69 199 118l-3 5-4 4c-61-48-127-88-197-116l2-5z"/><path d="M11567 6499c123 98 225 230 299 367l-5 3-5 3c-74-136-175-267-296-364l4-4z"/><path d="m11867 6867-6 2 5-3v1z"/><path d="M11867 6867c43 126 72 283 72 440h-12c0-156-29-311-72-436l6-2zM11939 7307c0 68-5 136-18 202l-6-1-6-1c13-65 18-133 18-200h6z"/><path d="M11921 7509c-12 66-32 130-59 189l-6-3-5-2c27-58 46-121 58-186l6 1z"/><path d="M11862 7698c-28 58-64 112-109 159l-4-5-5-4c45-45 80-98 107-155l5 2z"/><path d="M11753 7857c-45 46-100 85-166 113l-2-5-3-5c65-29 118-67 162-112l5 4z"/><path d="m11587 7971-2-6 2 5z"/><path d="M11587 7971c-42 12-78 21-109 27l-2-6-1-6q46.5-7.5 108-27l2 6z"/><path d="M11478 7998c-16 3-30 5-44 7v-6l-1-6c13-1 27-4 42-7l1 6z"/><path d="M11434 8005c-13 1-25 2-36 2v-12c11 0 22-1 35-2l1 6zM11398 8007c-17 0-31-2-44-5l2-6 2-6c11 4 24 5 40 5v6z"/><path d="M11354 8002c-6-2-11-4-16-7l3-5 2-5c5 2 9 4 15 5l-2 6z"/><path d="M11338 7995c-5-3-10-6-14-9l4-5 4-4c4 3 7 5 11 8l-2 5z"/><path d="M11324 7986c-4-4-7-8-10-12l5-4 5-3c2 4 5 7 8 10l-4 4z"/><path d="M11314 7974c-3-5-5-10-7-15l6-2 6-2c1 5 3 9 5 12l-5 3z"/><path d="M11307 7959c-3-10-5-21-5-34h12c0 11 2 22 5 30l-6 2zM11302 7925c0-27 7-59 18-97l6 2 6 1c-11 37-18 68-18 94h-6z"/><path d="M11320 7828c11-37 25-79 40-125l6 2 6 2c-15 45-30 87-40 124l-6-1zM11372 7707l-6-2z"/><path d="M11360 7703c32-97 55-183 70-260l5 2 6 1q-22.5 114-69 261l-6-2z"/><path d="M11430 7443c14-76 21-142 21-199h12c0 58-7 125-22 202l-6-1zM11451 7244c0-34-2-66-7-94l6-1 6-1c5 29 7 61 7 96h-6z"/><path d="M11444 7150c-5-28-12-53-21-76l5-2 6-3c9 24 17 50 22 79l-6 1z"/><path d="M11423 7074c-10-22-21-42-34-60l4-3 5-4c14 18 26 39 36 62l-6 3z"/><path d="M11389 7014c-14-17-29-32-46-45l4-5 4-5c17 14 33 30 47 48l-5 4z"/><path d="m11351 6959-4 5 3-5z"/><path d="M11344 6969c-48-27-95-46-139-58l1-6 2-6c45 13 93 32 142 60l-3 5z"/><path d="M11205 6911c-45-13-87-19-127-19v-12c41 0 85 6 130 19l-2 6zM11078 6892c-44 0-85 7-124 19l-2-6-1-5c40-13 82-20 127-20v6z"/><path d="M10954 6911c-39 12-76 30-110 52l-3-5-4-5c36-23 74-41 114-53l1 5z"/><path d="M10844 6963c-70 45-130 107-182 178l-5-3-5-4c53-72 115-136 185-181l4 5z"/><path d="M10662 7141c-105 143-175 322-210 464l-6-1-6-1c36-144 106-324 212-469l5 4zM10440 7603l6 1z"/><path d="M10452 7605c-42 173-55 350-55 528h-12c0-179 13-357 55-530l6 1zM10397 8133c0 274 30 551 30 823h-12c0-272-30-549-30-823h6zM10427 8956c0 87-3 173-11 259l-6-1-6-1c8-85 11-170 11-257h6z"/><path d="m10404 9213 6 1h-6zM10416 9214c74 1151 516 2008 821 2964l-6 2-6 2c-305-958-747-1815-821-2968h6z"/><path d="m11225 12182 6-2-2 6-3-1z"/><path d="m11232 12174 326 79-1 6-2 6-326-79 2-6z"/><path d="m11555 12265 2-6 6-1 2 9z"/><path d="M11551 12260c-43-209-96-411-96-606h12c0 194 53 396 96 604l-6 1zM11455 11654c0-91 12-181 41-269l6 2 6 2c-30 87-41 175-41 265h-6z"/><path d="M11496 11385c30-88 77-175 149-260l5 4 4 4c-70 84-117 169-146 256l-6-2z"/><path d="m11646 11124 4 5-5-4h1z"/><path d="M11646 11124c32-26 66-47 103-63l3 6 2 5c-36 15-69 37-100 62l-4-5z"/><path d="M11749 11061c37-16 77-25 118-25v12c-40 0-78 9-113 24l-2-5zM11867 11036c26 0 52 4 79 11l-1 6-2 6c-26-7-51-11-76-11v-6z"/><path d="M11946 11047c27 8 55 19 84 36l-3 5-3 5c-28-16-55-27-81-34l2-6z"/><path d="M12030 11083c28 16 57 36 86 62l-4 5-4 4c-29-25-57-45-84-61l3-5z"/><path d="M12116 11145c29 26 59 57 90 94l-5 4-5 4c-30-37-59-67-88-93l4-4z"/><path d="m12207 11242-6 1 5-4v1z"/><path d="M12207 11242c7 36 29 77 50 117l-6 2-5 3c-21-41-43-83-51-120l6-1z"/><path d="M12257 11359c10 20 20 40 27 60l-5 2-6 2c-7-19-17-39-27-59l5-3z"/><path d="M12284 11419c8 20 13 39 13 56h-12c0-16-5-34-12-52l6-2zM12297 11475c0 8-1 15-3 22l-6-2-6-1c2-6 3-12 3-19h6z"/><path d="M12294 11497c-2 7-5 13-9 20l-5-4-5-3c3-5 6-11 7-16l6 1z"/><path d="M12285 11517c-4 6-9 12-16 17l-3-5-4-4c5-5 10-10 13-15l5 3z"/><path d="M12269 11534c-6 5-13 10-22 14l-3-5-3-5c8-4 15-9 21-13l4 4z"/><path d="m12246 11548-2-5 3 5z"/><path d="M12246 11548c-20 10-39 16-56 21l-1-6-2-6c16-4 34-11 54-19l3 5z"/><path d="M12190 11569q-25.5 6-45 6v-12c12 0 27-2 42-6l2 6zM12145 11575c-12 0-22-1-31-4l1-6 2-6c8 3 18 4 28 4v6z"/><path d="M12114 11571q-15-4.5-27-12l3-5 3-5c8 5 15 8 24 10l-2 6z"/><path d="M12087 11559c-16-9-29-23-42-40l4-4 5-3c12 15 25 28 39 37l-3 5z"/><path d="M12045 11519c-25-32-48-75-83-117l5-4 5-4c34 43 57 86 82 118l-5 3z"/><path d="m11972 11394-5 4 4-4z"/><path d="M11963 11402c-12-11-24-20-35-28l3-5 4-5q16.5 12 36 30l-4 4z"/><path d="M11928 11374c-11-8-21-14-31-19l3-6 2-5c11 5 21 12 33 20l-4 5z"/><path d="M11897 11355c-10-5-19-9-27-11l2-6 1-5c9 2 19 6 29 11l-2 5z"/><path d="M11870 11344c-8-2-16-3-23-3v-12c8 0 17 1 26 4l-1 5zM11847 11341c-7 0-13 1-19 2l-1-5-2-6c7-2 14-3 22-3v6z"/><path d="M11828 11343c-5 2-11 4-16 7l-3-5-3-5c6-4 13-6 19-8l2 6z"/><path d="M11812 11350c-10 6-19 15-27 25l-5-4-5-4c9-11 20-21 31-27l3 5z"/><path d="m11775 11367 5 4-5-3z"/><path d="M11785 11374c-24 45-47 94-63 142l-6-2-6-2c17-49 40-98 65-144l5 3z"/><path d="M11722 11516c-17 49-27 97-27 142h-12c0-46 10-96 27-146l6 2zM11695 11658v9h-12v-9h6zM11683 11667h6zM11695 11667c2 57 13 118 19 174l-6 1-6 1c-6-56-17-119-19-176h6zM11714 11842h-6l6-1z"/><path d="M11714 11842v6h-12v-6h6zM11714 11848c0 70 16 147 38 226l-6 1-6 2c-22-80-38-158-38-229h6z"/><path d="M11752 12074c22 79 50 160 73 237l-6 2-6 2c-23-77-51-158-73-238l6-2z"/><path d="m11818 12319 1-6 6-2 3 10z"/><path d="m11818 12319-2185-494 1-6 1-6 2185 494-1 6zM17273 12046l6-2 2 6-5 1z"/><path d="M17273 12046c-313-739-755-2383-922-3138l6-1 6-1c167 753 609 2397 922 3136l-6 2zM16351 8908l6-1z"/><path d="M16351 8908c-111-568-295-1066-399-1585l6-1 6-1c104 519 288 1017 399 1585l-6 1zM15952 7323l6-1z"/><path d="M15952 7323c-58-294-85-592-85-887h12c0 294 27 591 85 885l-6 1zM15867 6436c0-452 63-898 173-1320l6 1 6 2c-110 421-173 866-173 1317h-6z"/><path d="M16040 5116c111-422 268-819 458-1173l5 3 5 3c-189 353-346 749-456 1170l-6-2zM16508 3949l-5-3z"/><path d="M16498 3943c67-137 143-263 225-375l5 4 5 4c-82 111-157 236-225 373l-5-3z"/><path d="M16723 3568c83-111 173-209 270-291l4 5 4 4c-96 81-186 178-268 290l-5-4z"/><path d="M16993 3277c97-82 201-147 311-194l3 6 2 5c-109 47-212 111-308 192l-4-4z"/><path d="M17304 3083c111-46 228-74 351-81v12c-121 7-237 34-346 80l-2-5zM17656 3002l-1 6v-6z"/><path d="M17656 3002c152 18 287 46 404 86l-2 6-2 6c-116-40-250-69-402-86l1-6z"/><path d="M18060 3088c116 41 215 93 294 157l-4 5-4 5c-78-64-175-115-290-155l2-6z"/><path d="m18354 3246-4 4 4-5zM18354 3246c44 44 80 93 111 145l-6 3-5 3c-30-51-66-99-108-143l4-4z"/><path d="M18465 3391c30 52 54 108 73 166l-5 2-6 2c-19-58-43-112-73-164l5-3z"/><path d="M18538 3557c38 115 54 241 54 368h-12c0-126-16-250-53-364l6-2zM18592 3925c0 173-30 350-76 513l-6-2-6-1c47-162 76-338 76-510h6z"/><path d="M18516 4438c-47 163-110 311-176 427l-5-3-5-3c66-115 128-262 174-424l6 1z"/><path d="m18337 4868-2-6 5 3-1 2z"/><path d="M18337 4868c-28 10-52 16-74 16v-12c20 0 43-5 70-16l2 6zM18263 4884c-15 0-28-3-40-7l2-6 3-6c10 4 22 7 35 7v6z"/><path d="M18223 4877c-12-5-22-12-32-21l4-4 4-4c9 7 18 13 29 17l-3 6z"/><path d="M18191 4856c-9-8-17-19-24-31l5-3 5-3c7 11 14 21 22 29l-4 4z"/><path d="M18167 4825q-10.5-19.5-18-42l6-2 5-2c5 15 11 28 17 40l-5 3z"/><path d="M18149 4783c-19-61-25-146-25-244h12c0 96 5 180 24 240l-5 2zM18124 4539c0-124 9-268 9-408h12c0 140-9 284-9 408h-6zM18133 4131c0-73-3-145-10-211l6-1 6-1c7 68 10 140 10 213h-6zM18135 3918l-6 1z"/><path d="M18123 3920c-13-74-33-136-60-188l5-3 5-3c28 53 49 117 62 192l-6 1z"/><path d="M18063 3732c-27-52-61-94-99-126l4-5 4-4c39 33 74 76 101 129l-5 3z"/><path d="M17964 3606c-38-32-80-56-126-71l2-5 2-6c47 15 91 39 130 73l-4 4z"/><path d="M17838 3535c-46-15-95-22-146-22v-12c52 0 102 7 150 23l-2 6zM17692 3513c-59 0-120 10-181 27l-2-6-1-6c61-17 124-27 184-27v6z"/><path d="M17511 3540c-61 17-121 43-179 74l-3-5-3-5c59-32 120-58 182-76l1 6z"/><path d="M17332 3614c-58 32-112 69-161 112l-4-5-4-5c50-42 105-80 163-112l3 5z"/><path d="M17171 3726c-49 42-93 88-128 138l-5-4-5-4c36-50 80-97 130-140l4 5z"/><path d="m17033 3856 5 4-5-3z"/><path d="M17043 3863c-236 337-397 756-503 1172l-6-2-6-1c107-418 269-838 505-1175l5 3z"/><path d="M16540 5035c-107 416-159 829-177 1154h-12c18-326 70-740 177-1157l6 1zM16351 6189h6zM16363 6189c-2 47-3 95-3 142h-12c0-47 1-95 3-142h6zM16360 6331c0 198 15 397 41 595l-6 1-6 1c-26-199-41-398-41-597h6zM16389 6928l6-1z"/><path d="M16401 6926c182 812 292 1612 537 2350l-6 2-6 2c-245-738-355-1538-537-2352l6-1zM16926 9280l6-2z"/><path d="M16938 9276c216 644 539 2016 766 2654l-6 2-6 2c-227-638-550-2010-766-2654l6-2z"/><path d="m17692 11934 6-2h6l1 39zM17692 11932c-33-916-199-2173-199-3281h12c0 1108 166 2364 199 3281h-6zM17493 8651c0-628 53-1208 213-1652l6 2 6 2c-160 443-213 1022-213 1648h-6zM17706 6999l6 2z"/><path d="M17706 6999c36-96 80-195 136-292l5 3 5 3c-55 96-99 194-134 290l-6-2z"/><path d="M17842 6707c56-97 124-192 209-279l4 4 4 4c-83 87-151 181-207 277l-5-3z"/><path d="m18052 6427 3 5-4-4v-1z"/><path d="M18052 6427c89-57 210-120 335-169l2 6 2 6c-124 48-244 110-333 167l-3-5z"/><path d="M18387 6258c63-24 126-45 188-59l1 5 1 6c-60 15-124 35-186 60l-2-6z"/><path d="M18575 6199c61-15 120-24 174-24v12c-53 0-111 9-172 23l-1-6zM18749 6175c14 0 27 1 41 2l-1 6-1 6c-12-1-26-2-39-2v-6zM18790 6177l-1 6z"/><path d="M18790 6177c66 7 129 29 186 61l-3 5-3 5c-56-31-116-52-182-59l1-6z"/><path d="M18976 6238c57 32 109 75 155 125l-4 4-4 4c-46-49-97-91-153-123l3-5z"/><path d="M19131 6363c93 99 165 228 213 360l-6 2-6 2c-47-130-118-258-209-356l4-4z"/><path d="m19344 6724-6 1 6-2z"/><path d="M19344 6724c15 76 24 163 24 253h-12c0-89-9-176-24-251l6-1zM19368 6977c0 73-6 149-19 222l-6-1-6-1c13-73 19-147 19-220h6z"/><path d="M19349 7199c-13 74-34 145-63 211l-5-3-6-2c29-65 49-135 62-208l6 1z"/><path d="M19286 7410c-29 65-67 125-115 174l-4-4-5-4c47-49 85-107 113-171l6 2z"/><path d="M19171 7584c-24 25-51 47-80 66l-4-5-3-5c29-19 55-40 78-64l5 4z"/><path d="M19091 7650c-30 19-62 34-97 47l-2-6-2-6c34-12 65-27 94-45l3 5z"/><path d="m18993 7697-1-6 2 6z"/><path d="M18993 7697c-28 6-54 10-76 13l-1-6v-6c22-3 47-7 75-13l1 6z"/><path d="M18917 7710c-23 3-42 4-59 4v-12c16 0 35-1 58-4v6zM18858 7714c-18 0-34-2-46-5l1-5 1-6c12 3 27 4 44 4v6z"/><path d="M18812 7709c-7-1-13-3-18-5l3-6 2-5c5 2 10 3 15 5l-1 6z"/><path d="M18794 7704c-5-2-10-5-14-8l3-5 4-5c3 3 7 5 12 7l-2 5z"/><path d="M18780 7696c-4-3-8-7-11-11l5-3 4-4c3 3 6 6 9 8l-4 5z"/><path d="M18769 7685c-3-3-6-8-7-12l5-3 6-2c1 4 3 7 5 10l-4 4z"/><path d="M18762 7673c-2-5-4-9-5-15l6-1 6-1c1 4 2 8 4 12l-6 2z"/><path d="M18757 7658c-1-5-1-10-1-16h12c0 5 0 10 1 14l-6 1zM18756 7642c0-12 2-26 6-41l6 1 6 1q-6 22.5-6 39h-6z"/><path d="M18762 7601c4-16 9-32 16-50l6 2 5 2c-6 18-12 34-15 48l-6-1z"/><path d="M18778 7551c13-35 31-75 51-119l5 2 6 2c-20 44-38 84-51 119l-5-2zM18840 7436l-6-2z"/><path d="M18829 7432c45-105 78-196 99-275l6 2 5 1q-31.5 118.5-99 276l-6-2z"/><path d="M18928 7157c10-39 18-75 23-109l6 1 6 1c-5 34-13 71-24 110l-5-1z"/><path d="M18951 7048c5-33 8-63 8-91h12c0 28-3 59-8 93l-6-1zM18959 6957c0-43-6-80-17-112l5-2 6-2c12 33 18 71 18 116h-6z"/><path d="M18942 6845c-11-31-27-57-47-79l4-4 4-4c22 23 39 50 50 83l-6 2z"/><path d="m18903 6758-4 4 4-5z"/><path d="M18895 6767c-44-33-86-57-128-72l2-6 2-6c43 16 87 40 132 74l-4 5z"/><path d="M18767 6695c-41-15-82-22-120-22v-12c40 0 81 7 124 22l-2 6zM18647 6673q-51 0-99 15l-2-6-2-6c33-10 67-15 103-15v6z"/><path d="M18548 6688q-48 15-93 42l-3-5-3-5c31-18 62-33 95-44l2 6z"/><path d="M18455 6730c-59 37-113 88-161 147l-5-4-5-4c50-60 105-112 165-149l3 5z"/><path d="M18294 6877c-97 117-170 265-213 386l-6-2-6-2c44-122 118-271 215-390l5 4zM18069 7259l6 2z"/><path d="M18081 7263c-163 462-103 979-200 1453l-6-1-6-1c97-474 37-993 200-1455l6 2z"/><path d="m17869 8714 6 1h-6zM17881 8715c-6 108-9 215-9 323h-12c0-108 3-216 9-323h6zM17872 9038c0 941 219 1881 356 2682l-6 1-6 1c-137-802-356-1742-356-2684h6z"/><path d="m18216 11722 6-1 3 5-8 4z"/><path d="m18219 11716 294-150 3 5 3 5-294 150-3-5z"/><path d="m18519 11576-3-5h6v4zM18510 11571c-10-138-25-274-25-405h12c0 131 15 266 25 405h-6zM18485 11166c0-111 11-218 44-321l6 2 5 2c-32 101-43 207-43 317h-6z"/><path d="M18529 10845c16-51 38-101 68-150l5 3 5 3c-29 48-51 97-67 148l-5-2z"/><path d="M18597 10695c29-49 65-96 110-142l4 4 4 4c-44 45-79 92-108 140l-5-3z"/><path d="m18708 10552 3 5-4-4v-1z"/><path d="M18708 10552c26-18 54-33 83-44l2 6 2 6c-28 10-55 25-81 42l-3-5z"/><path d="M18791 10508c29-10 59-16 89-16v12c-29 0-57 6-85 16l-2-6zM18880 10492c24 0 48 3 72 11l-2 6-2 6c-23-8-45-11-68-11v-6z"/><path d="M18952 10503c24 8 48 20 72 38l-3 4-4 5c-23-16-46-28-69-35l2-6z"/><path d="M19024 10541c24 17 48 39 72 67l-4 4-5 4c-23-27-47-49-70-66l4-5z"/><path d="M19096 10608c24 28 48 61 72 101l-5 3-5 3c-23-39-47-72-71-99l5-4z"/><path d="M19169 10712h-6l5-3 1 1zM19169 10712c2 30 15 66 27 101l-6 2-6 2c-12-36-25-73-27-105h6z"/><path d="M19196 10813c6 18 12 36 16 53l-6 2-5 1c-5-17-11-34-17-52l6-2z"/><path d="M19212 10866c5 18 8 35 8 50h-12c0-14-3-30-7-47l5-1zM19220 10916c0 9-1 16-3 24l-6-2-5-1c1-7 2-13 2-21h6z"/><path d="M19217 10940c-2 7-4 14-8 21l-6-4-5-3c4-5 6-11 8-17l5 1z"/><path d="M19209 10961c-4 6-10 12-16 17l-4-5-4-4c6-5 10-9 13-15l5 3z"/><path d="M19193 10978c-7 5-14 10-24 14l-2-6-2-6c8-3 15-7 20-11l4 4zM19169 10992l-2-6z"/><path d="M19169 10992c-15 5-29 9-41 11l-1-6-2-5c12-3 25-7 40-12l2 6z"/><path d="M19128 11003c-13 3-24 4-34 4v-12c9 0 20-1 31-3l2 5zM19094 11007c-11 0-21-1-30-4l2-6 1-5q12 3 27 3v6z"/><path d="M19064 11003c-9-3-17-6-24-11l3-5 4-5c6 4 13 7 20 10l-1 5z"/><path d="M19040 10992c-7-5-13-11-19-18l4-4 5-4c5 6 11 11 17 16l-4 5z"/><path d="M19021 10974c-6-7-11-14-16-22l5-3 5-4q7.5 12 15 21l-5 4z"/><path d="M19005 10952c-19-32-34-75-59-119l5-3 5-3c26 44 40 87 59 118l-5 4z"/><path d="m18956 10827-5 3 5-4z"/><path d="M18946 10834c-10-12-19-23-28-31l4-5 4-4c9 9 19 20 30 32l-5 4z"/><path d="M18918 10803c-9-9-18-16-26-21l3-5 4-5c8 6 17 13 27 22l-4 4z"/><path d="M18892 10782c-8-5-16-9-23-11l2-6 2-6c8 3 17 7 26 13l-4 5z"/><path d="M18869 10771c-7-2-13-4-20-4v-12c8 0 16 2 24 4l-2 6zM18849 10767c-4 0-9 1-13 2l-2-6-1-5c5-2 11-3 16-3v6z"/><path d="M18836 10769c-5 1-9 3-13 5l-3-5-3-5c5-3 10-5 16-6l1 5z"/><path d="M18823 10774c-8 5-16 11-23 19l-4-4-4-4c7-9 16-16 25-21l3 5z"/><path d="m18792 10785 4 4-5-3v-1z"/><path d="M18801 10792c-26 40-50 83-69 127l-6-2-5-2c19-45 44-89 70-129l5 3z"/><path d="M18732 10919c-19 44-33 88-37 130l-6-1-6-1c4-42 18-88 38-132l5 2zM18695 11049l-6-1z"/><path d="M18695 11049c-9 70-14 142-14 211h-12c0-70 5-142 14-213l6 1zM18681 11260c0 69 4 137 13 199l-6 1-6 1c-8-63-13-131-13-201h6zM18694 11459l-6 1zM18694 11459c3 33 7 67 11 106l-6 1-6 1c-4-39-8-73-11-106l6-1zM18701 11572l-2-6 6-1v5z"/><path d="m18701 11572-98 41-2-6-2-6 98-41 2 6zM18603 11613l-2-6z"/><path d="m18603 11613-430 166-2-6-2-6 430-166 2 6zM18173 11779l-2-6z"/><path d="m18173 11779-433 145-2-6-2-6 433-145 2 6zM17740 11924l-2-6z"/><path d="m17740 11924-459 126-2-6-2-6 459-126 2 6zM8439 15687l1 6-4 4-7-7z"/><path d="M8439 15687c491-125 905-199 1279-199v12c-373 0-787 74-1277 199l-1-6zM9718 15488c275 0 529 40 776 129l-2 6-2 5c-246-88-498-128-772-128v-6z"/><path d="M10494 15617c248 89 488 228 738 425l-4 4-4 5c-248-196-488-334-734-423l2-5zM11232 16042l-4 4z"/><path d="M11232 16042c295 233 557 471 767 733l-5 4-5 3c-209-261-470-498-765-731l4-5z"/><path d="M11999 16775c104 131 196 268 273 415l-5 2-6 3c-76-145-167-282-272-413l5-3z"/><path d="M12272 17190c76 146 137 300 181 467l-6 1-6 2c-43-166-104-320-180-465l6-3zM12453 17657l-6 1z"/><path d="M12453 17657c75 291 106 605 134 924h-6l-6 1c-28-318-59-632-134-922l6-2z"/><path d="M12581 18587v-6h6l1 6zM12581 18587l-1113 20v-12l1113-20v6zM11468 18595v6zM11468 18607l-56 3v-12l56-3v6zM11409 18609l3-5v6h-1z"/><path d="M11409 18609c-226-128-457-212-685-273l2-6 2-6c228 62 459 146 687 275l-3 5z"/><path d="m10728 18324-2 6 1-6z"/><path d="M10725 18336c-337-70-676-127-961-246l2-5 2-6c285 119 623 175 959 245l-1 6z"/><path d="M9764 18090c-144-59-273-135-382-235l4-4 4-5c108 100 236 174 378 233l-2 6z"/><path d="M9382 17855q-82.5-75-147-171l4-4 5-3c43 63 92 119 146 169l-4 5z"/><path d="M9235 17684c-44-64-81-136-112-217l6-2 6-2c30 80 67 151 109 214l-5 3zM9123 17467l6-2z"/><path d="M9123 17467c-52-144-66-277-66-405h12c0 127 14 259 66 401l-6 2zM9057 17062c0-88 7-174 11-260h6l6 1c-4 85-11 171-11 259h-6zM9068 16801l6 1h-6z"/><path d="M9068 16801c6-32 8-63 8-94h12c0 31-2 63-8 96l-6-1zM9076 16707c0-52-8-102-22-149l6-2 6-1c14 48 22 99 22 152h-6z"/><path d="M9054 16558c-14-48-33-94-57-139l5-3 6-3c24 47 44 93 58 142l-6 1z"/><path d="M8997 16419c-48-92-111-182-173-285l5-3 5-3c62 103 126 193 174 285l-6 3z"/><path d="m8834 16128-5 3 4-4z"/><path d="m8825 16135-389-438 4-4 4-4 389 438-4 4zM16206 18579l6 1v6h-7z"/><path d="M16206 18579c71-343 86-651 159-995l6 1 6 1c-74 344-88 653-159 995l-6-1z"/><path d="M16365 17584c37-173 89-354 170-552l5 2 6 3c-81 197-132 378-169 549l-6-1z"/><path d="M16535 17032c81-198 191-414 345-656l5 3 5 3c-153 241-263 457-344 655l-6-3zM16880 16376l5 3z"/><path d="M16880 16376c124-171 221-330 370-511l4 4 5 4c-149 180-246 340-369 510l-5-4z"/><path d="M17250 15865c74-90 162-186 273-291l4 5 4 4c-110 104-198 200-272 290l-5-4z"/><path d="M17523 15574c111-104 245-218 411-345l4 5 4 5c-167 126-300 240-411 344l-4-4z"/><path d="m17935 15229 3 5-4-5z"/><path d="M17935 15229c238-148 482-274 739-363l2 6 2 6c-256 88-500 214-737 361l-3-5z"/><path d="M18674 14866c257-89 525-141 811-141v12c-285 0-552 52-807 141l-2-6zM19485 14725h24v12h-24v-6zM19515 14730l-6 1v-6h5z"/><path d="M19515 14730c28 217 43 441 43 674h-12c0-232-14-456-43-672l6-1zM19558 15404c0 461-58 956-182 1487l-6-1-6-1c124-531 182-1025 182-1485h6z"/><path d="m19376 16892-6-2 6 1z"/><path d="M19376 16892c-60 220-156 425-282 615l-5-3-5-3c125-190 220-393 280-612l6 1z"/><path d="M19094 17507c-127 191-284 368-468 534l-4-5-4-4c183-165 340-342 466-531l5 3zM18618 18032l4 4z"/><path d="M18626 18040c-127 124-264 209-404 281l-3-5-3-6c139-71 275-155 402-278l4 4z"/><path d="M18222 18321c-139 72-282 131-420 206l-3-5-3-5c139-75 281-135 420-207l3 6z"/><path d="M17799 18528v-6l3 5-1 1zM17799 18528l-1587 58v-12l1587-58v6zM9758 17851l6-1 4 5-9 8z"/><path d="m9758 17851-58-1255 6-1h6l58 1255h-6z"/><path d="M9700 16595h6l-6 1z"/><path d="M9700 16595c4-86 12-175 26-259l6 1 6 1c-14 84-22 172-26 258l-6-1z"/><path d="M9726 16336c15-85 37-165 67-234l6 2 5 2c-30 69-51 148-66 232l-6-1z"/><path d="M9793 16102q24-52.5 54-96l5 3 5 4c-20 28-38 59-53 93l-5-2z"/><path d="M9847 16006q30-43.5 69-75l4 5 3 4c-25 21-47 45-66 73l-5-4z"/><path d="M9916 15931c26-21 55-37 87-49l2 6 2 6c-31 10-59 26-84 46l-3-4z"/><path d="M10003 15882c31-11 67-17 105-17v12c-37 0-71 6-101 17l-2-6zM10108 15865c39 0 83 6 130 20l-2 6-2 5c-46-13-88-19-126-19v-6z"/><path d="M10238 15885c46 13 97 34 152 63l-3 5-3 6c-54-29-104-49-150-63l2-5zM10390 15948l-3 5z"/><path d="M10390 15948c89 49 170 114 238 191l-4 4-4 4c-68-76-147-140-236-188l3-6zM10620 16147l4-4z"/><path d="M10628 16139c79 86 136 169 173 249l-5 3-6 2c-36-79-92-161-170-246l4-4z"/><path d="M10801 16388c19 41 32 81 41 120l-6 1-6 2c-8-39-22-78-40-118l6-2z"/><path d="M10842 16508c9 39 13 78 13 117h-12c0-38-4-76-13-114l6-2zM10855 16625c0 51-7 101-22 151l-5-2-6-1c14-49 21-98 21-148h6z"/><path d="M10833 16776c-14 50-35 99-62 148l-5-3-6-3c27-48 48-96 62-145l6 1z"/><path d="M10771 16924c-54 98-132 194-228 292l-4-5-4-4c95-96 172-192 225-289l6 3zM10535 17207l4 4z"/><path d="M10543 17216c-234 239-518 425-775 639l-4-5-4-4c257-214 541-400 775-639l4 4zM17202 18419h6l4 5-9 7zM17202 18419l-31-1099h12l31 1099h-6zM17171 17320h6zM17171 17320v-12h12v12h-6zM17171 17308c0-174-21-358-21-533h12c0 175 21 359 21 533h-6zM17150 16775c0-76 4-150 15-221l6 1 6 1c-11 70-15 144-15 219h-6z"/><path d="M17165 16554c12-71 31-139 61-202l5 2 6 3c-30 62-48 129-60 199l-6-1z"/><path d="m17226 16351 5 3-5-2z"/><path d="M17226 16351c55-111 129-213 214-287l4 5 4 5c-84 72-157 173-211 283l-6-3z"/><path d="M17440 16064c42-37 87-67 133-87l3 5 2 5c-45 21-89 50-130 87l-4-5z"/><path d="M17573 15977c23-11 47-19 71-25l1 6 1 6c-22 5-45 13-68 23l-2-5z"/><path d="M17644 15952c24-5 48-8 72-8v12c-24 0-47 3-70 8l-1-6zM17716 15944c41 0 82 8 122 27l-2 5-3 6c-39-18-78-26-117-26v-6z"/><path d="M17838 15971c40 18 80 46 118 86l-5 4-4 4c-37-38-75-65-114-83l3-6zM17956 16057l-5 4z"/><path d="M17956 16057c71 78 129 179 169 273l-5 2-6 3c-39-93-96-193-167-270l4-4z"/><path d="M18125 16330c20 47 36 92 46 131l-6 2-6 1c-10-39-25-83-45-129l6-3z"/><path d="M18171 16461c5 20 9 39 12 55l-6 1-6 1q-3-24-12-54l6-1z"/><path d="M18183 16516c3 17 4 31 4 44h-12c0-12-1-26-4-42l6-1zM18187 16560c0 10-1 19-3 26l-6-2-5-2c1-6 2-13 2-22h6z"/><path d="m18173 16582 5 2h-6v-1zM18184 16585c-33 379-124 726-283 1035l-5-3-6-3c158-307 249-652 282-1030h6z"/><path d="M17901 17620c-80 154-176 299-290 433l-5-4-4-4c113-133 209-277 288-431l6 3z"/><path d="M17611 18053c-115 134-247 258-399 371l-4-5-3-5c151-112 283-235 397-369l4 4zM13674 20169v6l-5 4-8-9zM13674 20169l1808-79v12l-1808 79v-6zM15482 20102v-6l1 6z"/><path d="M15481 20090c52-8 98-15 139-19l1 6 1 6c-41 4-87 11-139 19l-1-6z"/><path d="M15620 20071c42-4 78-6 109-6v12c-31 0-67 2-107 6l-1-6zM15729 20065c31 0 57 2 78 5v6l-1 6c-22-3-47-5-77-5v-6z"/><path d="M15807 20070c23 4 41 10 55 17l-3 5-2 5q-21-9-51-15l1-6z"/><path d="M15862 20087c7 3 14 7 19 12l-4 4-4 5c-4-4-10-8-16-11l2-5z"/><path d="M15881 20099c5 4 10 9 14 14l-5 4-5 3q-4.5-6-12-12l4-5z"/><path d="M15895 20113c3 6 6 11 8 17l-6 2-6 2c-1-5-4-10-6-14l5-3z"/><path d="M15903 20130c1 6 2 13 2 19h-12c0-5-1-10-2-15l6-2zM15905 20149q0 12-3 24l-6-1-6-2q3-10.5 3-21h6z"/><path d="M15902 20173c-2 8-5 17-9 26l-6-3-5-2c4-9 6-16 8-24l6 2z"/><path d="M15893 20199c-8 17-20 36-34 55l-5-3-5-4c14-19 25-37 33-53l5 2z"/><path d="M15859 20254c-29 39-71 83-121 129l-4-5-4-4c50-45 90-88 119-127l5 4z"/><path d="M15738 20383c-99 91-232 192-366 287l-4-5-3-5c134-94 266-195 365-286l4 4z"/><path d="M15372 20670c-135 94-271 183-376 249l-3-5-3-5c105-66 240-155 375-249l3 5z"/><path d="M14996 20919c-26 16-50 32-72 45l-3-5-4-5c22-14 47-29 73-45l3 5z"/><path d="M14924 20964c-22 14-42 26-58 36l-3-5-4-6c17-10 36-22 58-35l4 5z"/><path d="M14866 21000c-9 5-16 9-23 13l-3-5-3-5c7-4 14-9 22-14l4 6z"/><path d="M14843 21013c-7 4-13 8-18 11l-3-5-3-5c5-3 11-7 18-11l3 5z"/><path d="M14825 21024c-3 1-5 3-7 4l-3-5-3-5c2-1 4-3 7-4l3 5z"/><path d="m14818 21028-6 3-3-5-3-5 6-3 3 5z"/><path d="M14812 21031c-1 1-3 2-4 3l-3-5-3-6c1 0 3-1 4-2l3 5z"/><path d="M14808 21034c-1 1-2 1-3 2l-3-6-3-5c1 0 2-1 3-2l3 6z"/><path d="m14799 21036 3-6 3 6-3 1z"/><path d="M14799 21036c-482-231-841-525-1130-857l5-4 5-4c287 331 644 624 1126 854l-3 5zM6091 12551l-3-5 4-5 6 6z"/><path d="M6091 12551c-58 34-118 66-185 88l-2-5-2-6c66-23 126-53 183-87l3 5z"/><path d="M5906 12639c-67 23-141 38-225 38v-12c83 0 155-14 221-37l2 6zM5681 12677c-62 0-130-8-205-26l1-6 1-6c75 18 142 26 203 26v6z"/><path d="M5476 12651c-76-18-158-47-250-88l2-5 2-5c92 40 174 68 248 86l-1 6z"/><path d="m5230 12553-2 5 2-6z"/><path d="M5226 12564c-73-29-136-58-191-88l2-6 3-5c55 30 118 59 190 87l-2 6z"/><path d="M5035 12476c-56-30-104-61-145-93l3-4 4-5c41 31 88 61 143 91l-3 5z"/><path d="M4890 12383c-84-63-143-128-191-194l5-3 5-4c47 65 105 130 188 192l-4 5z"/><path d="M4699 12189c-95-131-148-266-263-394l4-4 4-4c117 129 169 264 265 395l-5 4z"/><path d="m4441 11785-1 6-4 4-13-14z"/><path d="M4441 11785q529.5 124.5 942 312l-2 6-3 5c-274-125-587-229-939-311l1-6z"/><path d="M5383 12097c275 126 512 274 709 444l-4 5-4 5c-197-170-432-317-706-443l3-5zM13825 22559l-5-4v-6h13z"/><path d="M13825 22559q-19.5 22.5-36 39l-4-4-4-5c11-10 22-23 34-38l5 4z"/><path d="M13789 22598c-12 11-23 20-34 27l-3-5-3-5c10-7 21-15 32-26l4 5z"/><path d="M13755 22625c-10 7-21 12-31 16l-2-6-2-6c9-3 19-8 29-14l3 5z"/><path d="M13724 22641q-15 4.5-30 6v-12c8-1 17-3 26-6l2 6zM13694 22635v6l-1-6z"/><path d="M13695 22647c-8 2-16 3-24 4v-6l-1-6c7 0 14-2 23-4l1 6z"/><path d="M13671 22651c-7 1-14 2-20 2v-12c6 0 12-1 19-2l1 6zM13651 22653c-8 0-15-1-21-2l1-6 1-6c6 1 12 2 19 2v6z"/><path d="M13630 22651c-7-2-12-4-17-6l2-5 3-6c4 2 9 4 14 5l-1 6z"/><path d="M13613 22645c-5-2-10-5-14-9l4-4 4-5c3 3 7 5 11 7l-3 6z"/><path d="M13599 22636c-4-3-7-6-10-10l4-4 5-4 9 9-4 5z"/><path d="M13589 22626c-12-14-19-32-31-45l5-4 5-4c11 13 18 31 30 45l-5 4z"/><path d="m13568 22573-5 4-3-5 4-3z"/><path d="M13566 22582c-12 8-25 13-38 16l-1-6-2-5c12-3 24-8 35-15l3 5z"/><path d="M13528 22598c-13 3-27 5-41 5v-12c13 0 26-1 38-4l2 5zM13487 22603c-31 0-63-6-95-10l1-6 1-6c31 4 63 10 93 10v6z"/><path d="m13394 22581-1 6-4 4-11-12z"/><path d="m13397 22583 63 69-4 4-4 4-63-69 4-4z"/><path d="m13454 22662 2-6 4-4 19 20z"/><path d="M13454 22662c-5-2-9-4-12-4l1-6 1-6c5 1 9 2 14 4l-2 6z"/><path d="M13442 22658c-4-1-7-2-11-2v-12c4 0 9 1 13 2l-1 6zM13431 22656c-2 0-5 1-7 1l-1-6-2-5c3-1 7-2 10-2v6z"/><path d="M13424 22657c-3 1-5 2-7 3l-2-6-3-5q4.5-3 9-3l2 5z"/><path d="M13417 22660c-4 2-8 5-11 8l-5-4-4-4c4-5 9-9 15-11l3 5z"/><path d="M13406 22668c-4 5-7 9-10 15l-6-3-5-3c4-6 7-12 12-17l4 4z"/><path d="M13396 22683c-3 6-6 12-8 19l-6-2-6-2 9-21 5 3z"/><path d="m13376 22698 6 2-5 3-2-2z"/><path d="M13387 22697c6 9 9 19 12 29l-5 2-6 1c-3-9-6-18-11-26l5-3z"/><path d="M13399 22726c3 9 5 19 8 29l-5 2-6 2c-3-10-5-20-8-30l6-1z"/><path d="M13407 22755c3 9 7 17 14 25l-5 4-5 4c-7-9-12-19-15-29l6-2z"/><path d="M13421 22780c3 4 6 8 11 11l-4 5-3 5c-6-4-10-9-14-13l5-4z"/><path d="M13432 22791c5 4 10 7 16 10l-2 5-2 5c-8-3-14-6-19-10l3-5z"/><path d="m13452 22807-6-1 2-5 5 1z"/><path d="m13452 22807-28 158-6-1-6-1 28-158 6 1z"/><path d="M13418 22970v-6l6 1-1 5zM13418 22970h-14v-12h14v6zM13404 22970c-24 0-48 2-72 8l-2-6-1-6c25-6 50-8 75-8v6z"/><path d="M13332 22978c-24 5-49 14-73 26l-3-5-3-5c26-13 51-22 76-28l1 6z"/><path d="m13253 22994 3 5-4-4v-1z"/><path d="M13260 23003c-9 10-18 20-25 29l-4-4-5-4c7-9 16-19 26-29l4 4z"/><path d="M13235 23032c-7 8-12 17-17 24l-5-3-5-3c5-8 11-17 18-26l5 4z"/><path d="M13218 23056c-4 8-8 15-11 22l-5-3-6-2c3-7 7-15 12-23l5 3z"/><path d="M13207 23078c-3 6-5 13-6 19l-6-2-6-1c2-7 4-14 7-21l6 2z"/><path d="M13201 23097c-6 25-4 46-7 70l-6-1-6-1c4-25 1-46 7-71l6 1z"/><path d="m13182 23165 6 1h-6zM13194 23166c0 29 4 55 12 79l-5 2-6 2c-8-25-13-52-13-83h6z"/><path d="M13206 23245c8 24 20 46 34 67l-5 3-5 3c-15-21-27-44-35-69l6-2z"/><path d="m13230 23318 5-3-2 5h-2z"/><path d="m13237 23310 84 37-2 5-2 5-84-37 2-5zM13317 23357l2-5 3 5-2 2z"/><path d="m13316 23347 47-32 3 5 3 5-47 32-3-5z"/><path d="M13372 23320h-6l-3-5 9-6zM13372 23320v69h-12v-69h6zM13360 23389h6l-3 5-3-2z"/><path d="M13369 23384q10.5 6 21 9l-1 6-2 6c-9-2-17-6-24-11l3-5z"/><path d="M13390 23393c8 2 16 3 25 3v12c-10 0-19-1-28-3l2-6zM13415 23396c14 0 30-2 48-5l1 6 1 6c-19 3-35 5-50 5v-6z"/><path d="M13463 23391c19-3 40-7 64-10l1 6 1 6c-24 3-45 7-64 10l-1-6z"/><path d="m13529 23393-1-6 3 5-1 1z"/><path d="m13525 23382 117-68 3 5 3 5-117 68-3-5z"/><path d="m13648 23324-3-5 4 5z"/><path d="M13641 23314c5-3 9-7 13-10l4 5 3 5c-4 3-8 6-12 10l-4-5z"/><path d="M13654 23304c5-2 9-5 12-7l3 6 3 5c-4 2-7 4-11 6l-3-5z"/><path d="M13666 23297c4-1 7-3 11-4l1 6 2 6c-3 1-5 2-8 3l-3-5z"/><path d="M13677 23293c3-1 6-1 9-1v12c-2 0-4 0-6 1l-2-6zM13686 23292c3 0 6 0 8 1l-2 6-1 5h-5v-6z"/><path d="M13694 23293c3 1 5 2 7 3l-3 5-4 5c-1-1-2-1-3-2l1-5z"/><path d="m13701 23296 6 6-5 4-5 3-3-3 4-5z"/><path d="M13707 23302c1 2 2 4 4 6l-6 3-5 3c-1-2-2-3-3-5l5-3z"/><path d="M13711 23308c2 5 4 10 5 17l-6 1-6 1c-1-5-2-9-4-13l5-3z"/><path d="M13716 23325c1 5 2 12 3 19l-6 1h-6q0-9-3-18l6-1z"/><path d="M13719 23344c3 27 2 61 6 88l-6 1-6 1c-3-28-3-62-6-89h6z"/><path d="m13713 23434 6-1-4 5-2-2z"/><path d="M13723 23428c31 24 63 43 97 58l-2 6-3 5c-34-15-68-35-100-59l4-5z"/><path d="M13820 23486c34 15 69 26 105 31l-1 6-1 6c-37-6-73-16-108-32l3-5z"/><path d="m13923 23529 1-6v6zM13924 23517q30 0 51 6l-1 5-2 6c-13-3-29-5-48-5v-6z"/><path d="M13975 23523c15 3 27 9 37 15l-4 5-3 5c-9-6-20-10-33-14l2-6z"/><path d="M14012 23538c10 7 17 15 24 24l-5 3-5 4q-7.5-12-21-21l3-5z"/><path d="M14036 23562c6 8 11 18 16 28l-6 2-6 2c-3-9-8-17-14-25l5-4z"/><path d="m14052 23594-6-2 6-2 1 2z"/><path d="M14052 23594c-5 11-10 22-13 33l-6-1-6-2c4-12 9-23 13-34l6 2z"/><path d="M14039 23627c-3 11-6 22-6 33h-12c0-12 3-24 6-36l6 2zM14033 23660c0 7 1 14 3 20l-6 2-5 2c-3-8-4-16-4-24h6z"/><path d="M14036 23680c2 8 5 15 10 22l-5 3-5 3c-5-8-9-16-11-24l5-2z"/><path d="m14036 23708 5-3v6h-3zM14041 23699h110v12h-110v-6zM14157 23704l-6 1v-6h5z"/><path d="M14157 23704c4 19 11 37 20 54l-5 3-6 2q-13.5-27-21-57l6-1z"/><path d="M14177 23758c9 17 21 33 35 49l-4 4-4 4c-16-16-28-33-38-52l6-2zM14213 23814l-5-3 4-4 3 3z"/><path d="M14213 23814c-8 17-16 35-22 56l-6-1-5-2c6-22 14-40 23-59l5 3z"/><path d="M14191 23870c-6 21-10 45-10 75h-12c0-31 5-56 11-78l5 2zM14181 23945c0 15 1 32 4 50l-6 1h-6c-3-18-4-35-4-51h6z"/><path d="M14185 23995c2 19 5 39 10 62l-6 1-6 1c-5-23-8-44-10-63h6z"/><path d="m14183 24059 6-1v6h-5zM14189 24052l120 5v12l-120-5v-6zM14313 24059l-4 4v-6h3z"/><path d="m14313 24059 41 42-4 4-4 4-41-42 4-4zM14356 24106l-6-1 4-4 2 2z"/><path d="m14356 24106-5 44-6-1-6-1 5-44 6 1z"/><path d="m14339 24148 6 1-3 5-3-2z"/><path d="m14348 24144 74 42-3 5-3 5-74-42 3-5z"/><path d="M14425 24191h-6l3-5 3 2zM14425 24191l-6 86h-12l6-86h6zM14407 24277h6l-2 6-4-2z"/><path d="m14415 24271 44 16-2 6-2 6-44-16 2-6zM14463 24293h-6l2-6 4 2z"/><path d="M14463 24293v64h-12v-64h6zM14461 24362l-4-5h6v3z"/><path d="m14461 24362-222 160-4-5-4-5 222-160 4 5z"/><path d="m14231 24512 4 5-3 5-7-5zM14238 24512l105 71-3 5-3 5-105-71 3-5zM14337 24593l3-5z"/><path d="M14343 24583c33 15 66 31 90 47l-3 5-3 5c-25-16-57-31-90-47l3-5z"/><path d="M14433 24630c13 8 24 16 31 25l-4 4-5 4c-7-8-16-16-28-23l3-5z"/><path d="M14464 24655c4 4 7 9 9 14l-5 2-5 3c-2-4-5-8-8-11l5-4z"/><path d="M14473 24669c2 2 2 5 3 7l-6 1-6 2c0-2-1-4-1-5l5-3z"/><path d="M14476 24676c1 3 1 5 1 8h-12c0-2 0-4-1-5l6-2zM14477 24684c0 4-1 8-3 13l-5-3-6-2c1-3 2-6 2-8h6z"/><path d="M14474 24697c-1 4-4 8-7 12l-5-4-5-4c3-3 5-6 6-9l6 2z"/><path d="m14457 24701 5 4-5-3z"/><path d="M14467 24708c-8 11-14 21-18 29l-5-2-6-3c5-9 11-19 19-30l5 3z"/><path d="M14449 24737c-2 4-3 8-4 11l-6-2-6-2c2-3 3-7 5-12l6 3z"/><path d="M14445 24748c-1 3-2 5-2 7h-12c0-3 1-7 2-11l6 2zM14443 24755c0 1 1 1 1 2l-6 2-6 2c0-2-1-4-1-6h6zM14444 24757l-5 4-5 3c-1-1-1-2-2-3l6-2z"/><path d="M14444 24757v1l-4 4-4 5c-1-1-1-2-2-3l5-3z"/><path d="M14444 24758h1l-3 5-3 6c-1-1-2-2-3-2l4-5z"/><path d="m14445 24758-1 6-2 6c-1-1-2-1-3-1l3-6z"/><path d="M14445 24758c1 1 2 1 4 1v12c-3 0-5-1-7-1l2-6zM14449 24759c1 0 2-1 4-1l1 6 1 6c-2 0-5 1-6 1v-6z"/><path d="M14453 24758c2 0 4 0 6-1l1 6 2 6c-3 0-5 1-7 1l-1-6z"/><path d="M14459 24757c4-1 10-3 16-6l2 6 2 6c-6 2-12 4-17 6l-2-6z"/><path d="m14479 24763-2-6 4 5h-1z"/><path d="m14473 24752 48-37 4 5 4 5-48 37-4-5z"/><path d="m14529 24725-4-5 6 1v2z"/><path d="m14519 24719 9-67 6 1 6 1-9 67-6-1z"/><path d="m14528 24651 6 2-6-1z"/><path d="M14528 24651c6-14 11-26 17-37l5 3 5 3c-5 10-10 22-15 35l-6-2z"/><path d="M14545 24614c5-10 11-20 16-28l5 3 5 4c-5 8-10 17-16 27l-5-3z"/><path d="M14561 24586c11-17 22-29 33-39l4 5 4 4c-10 9-21 21-31 37l-5-4z"/><path d="M14594 24547c21-19 42-27 63-38l3 5 3 5c-20 11-41 19-61 37l-4-4z"/><path d="m14665 24518-5-4-3-5 29-16z"/><path d="m14665 24518-65 74-5-4-5-4 65-74 5 4z"/><path d="m14590 24584 5 4-5-3z"/><path d="m14600 24591-55 104-5-3-5-3 55-104 5 3z"/><path d="m14535 24689 5 3-6 1v-2zM14546 24691l3 20-6 1-6 1-3-20 6-1z"/><path d="m14537 24713 6-1 5 4-9 11z"/><path d="m14538 24708 140-178 5 4 5 4-140 178-5-4z"/><path d="m14680 24529 3 5-5-4 1-1z"/><path d="M14680 24529c10-6 19-11 26-18l4 5 4 4c-8 7-17 14-28 19l-3-5z"/><path d="M14706 24511c7-6 13-13 18-20l5 4 5 3c-6 8-12 15-20 22l-4-4z"/><path d="M14724 24491c10-14 18-30 26-46l5 3 5 3c-8 16-15 32-26 47l-5-3z"/><path d="m14760 24451-5-3 6-1v2z"/><path d="M14749 24449c-4-24-7-49-7-75h12c0 25 3 49 7 73l-6 1zM14742 24374c0-29 4-60 13-94l6 2 6 2c-10 32-13 62-13 90h-6z"/><path d="m14757 24278 4 4-6-2 1-1z"/><path d="M14757 24278c17-17 33-30 48-41l3 4 4 5c-15 11-30 24-47 40l-4-4z"/><path d="M14805 24237q22.5-18 42-27l3 5 3 5c-13 7-26 15-41 26l-4-5z"/><path d="M14847 24210c14-7 26-12 38-15l2 6 1 5c-11 3-23 8-35 14l-3-5z"/><path d="M14885 24195c12-3 24-5 35-5v12c-10 0-21 1-32 4l-1-5zM14920 24190q19.5 0 39 6l-2 6-2 6c-11-4-23-6-35-6v-6z"/><path d="m14955 24208 2-6 3 5-2 1z"/><path d="m14954 24197 106-53 3 5 3 5-106 53-3-5z"/><path d="M15063 24143v6l-3-5 2-1zM15063 24143l135 10v12l-135-10v-6zM15198 24165v-6l5 3-2 3z"/><path d="m15193 24156 164-231 5 3 5 3-164 231-5-3z"/><path d="m15367 23931-5-3 6 2z"/><path d="m15356 23926 63-176 6 2 6 2-63 176-6-2z"/><path d="m15431 23754-6-2 6 1z"/><path d="m15419 23751 30-186 6 1 6 1-30 186-6-1z"/><path d="m15451 23562 4 4-6-1v-2z"/><path d="m15451 23562 101-96 4 4 4 4-101 96-4-4z"/><path d="m15560 23474-4-4 5 3v1z"/><path d="M15551 23467c17-30 36-58 56-82l5 4 4 3c-20 25-38 52-55 81l-5-3z"/><path d="M15607 23385c21-25 43-47 67-65l4 5 4 5c-24 17-46 38-66 62l-4-3z"/><path d="m15682 23330-4-5 4 4z"/><path d="M15674 23321q16.5-16.5 30-36l5 3 5 3c-9 15-20 28-32 38l-4-4z"/><path d="M15704 23285q15-21 24-45l6 2 6 3c-7 16-16 32-26 46l-5-3z"/><path d="M15728 23240c14-32 22-67 22-100h12c0 35-8 71-22 105l-6-3zM15750 23140c0-12-1-23-3-35l5-1 6-1c3 12 4 24 4 37h-6z"/><path d="M15747 23105c-3-11-6-21-10-31l5-3 6-2c5 11 8 22 10 34l-6 1z"/><path d="M15737 23074c-5-10-10-19-17-27l4-4 5-4c7 9 14 19 19 30l-6 2z"/><path d="M15720 23047c-7-8-15-15-25-21l3-5 3-5c11 6 20 14 28 23l-5 4z"/><path d="m15701 23016-3 5 1-6h1z"/><path d="M15697 23027c-40-10-75-24-105-40l3-5 3-6c29 17 62 30 101 39l-1 6z"/><path d="M15592 22987c-30-17-57-37-81-59l4-4 4-4c24 21 49 40 79 56l-3 6z"/><path d="m15510 22928 5-4-4 4z"/><path d="M15510 22928c-10-13-20-23-29-30l4-5 3-4c10 7 20 18 32 31l-5 4z"/><path d="M15481 22898c-9-7-18-12-27-15l2-5 2-6c10 3 20 9 30 17l-3 4z"/><path d="M15454 22883c-10-3-20-4-32-5l1-6v-6c13 1 24 2 35 6l-2 6z"/><path d="M15422 22878c-12-1-26-1-42-1v-12c17 0 31 0 43 1v6zM15380 22877h-67v-12h67v6zM15312 22877l1-6v6z"/><path d="m15312 22877-164-37 1-6 1-6 164 37-1 6z"/><path d="m15150 22828-1 6-4-5 3-1z"/><path d="m15153 22839-71 54-4-5-4-5 71-54 4 5z"/><path d="M15072 22888h6l4 5-9 7zM15072 22888l-6-107h12l6 107h-6zM15078 22781h-6l2-6 4 2z"/><path d="M15070 22787c-35-14-70-31-104-44l2-5 2-6c35 13 70 30 104 43l-2 6z"/><path d="M14966 22743c-17-6-33-12-49-16l1-6 2-6c16 4 33 10 50 17l-2 6z"/><path d="M14917 22727c-16-4-31-6-46-6v-12c16 0 32 2 49 6l-2 6zM14871 22721c-8 0-17 1-25 2l-1-5-2-6c9-2 19-3 28-3v6z"/><path d="M14846 22723c-8 2-16 5-23 9l-3-5-3-5c8-5 17-8 26-10l2 6z"/><path d="m14817 22722 3 5-6-2 1-2z"/><path d="m14826 22729-22 64-6-2-6-2 22-64 6 2z"/><path d="m14799 22797-1-6 6 2-2 4z"/><path d="m14799 22797-153 15-1-6-1-6 153-15 1 6z"/><path d="M14645 22812v-6l1 6zM14645 22812c-13-1-25-3-35-5l1-6 1-6c10 2 21 4 33 5v6z"/><path d="M14610 22807c-11-3-20-6-29-10l3-5 3-5c7 3 16 6 25 8l-1 6z"/><path d="M14581 22797c-8-3-15-8-21-13l4-5 4-4c5 4 11 8 19 12l-3 5z"/><path d="M14560 22784q-9-7.5-15-18l5-3 5-3c3 5 7 10 13 15l-4 4z"/><path d="m14546 22758 4 5-5 3-3-5z"/><path d="M14546 22758c34-25 67-49 92-74l4 4 4 4c-25 26-59 51-92 76l-4-5z"/><path d="M14638 22684c12-13 22-25 29-37l5 3 5 3c-7 13-18 26-31 39l-4-4z"/><path d="M14667 22647c3-6 6-12 8-18l5 1 6 2q-3 10.5-9 21l-5-3z"/><path d="M14675 22629c1-6 2-12 2-18h12q0 10.5-3 21l-6-2zM14677 22611v-6l6-1 6-1v8h-6zM14689 22603l-6 1z"/><path d="m14677 22605-16-97 6-1 6-1 16 97-6 1z"/><path d="M14661 22507h6l-6 1zM14661 22507c-1-13-3-26-6-37l6-1 6-2c3 12 5 25 6 40h-6z"/><path d="M14655 22470q-4.5-16.5-12-30l5-3 5-3c5 10 10 21 14 33l-6 2z"/><path d="M14643 22440c-5-9-11-16-17-23l4-4 4-4c7 7 13 16 19 25l-5 3z"/><path d="M14626 22417c-7-6-13-12-20-16l3-5 3-5c8 5 15 11 22 18l-4 4z"/><path d="m14612 22391-3 5-5-4 4-4z"/><path d="M14614 22400c-19 22-31 48-47 71l-5-3-5-4c16-24 29-49 47-72l5 4z"/><path d="M14567 22471c-9 12-18 24-30 35l-4-5-4-4c11-10 20-21 28-33l5 4z"/><path d="M14537 22506c-11 11-25 20-42 28l-3-5-3-5c17-8 29-17 40-27l4 4z"/><path d="m14493 22535-1-6 3 5-1 1z"/><path d="M14493 22535c-13 3-24 5-35 7l-1-6v-6c10-1 21-4 34-7l1 6z"/><path d="M14458 22542q-15 3-30 3v-12c9 0 18-1 29-3v6zM14428 22545c-14 0-27-2-42-7l1-6 2-5c14 4 26 6 39 6v6z"/><path d="M14386 22538c-15-4-31-11-50-21l3-5 3-5c18 9 33 16 47 20l-2 5z"/><path d="m14342 22507-3 5-3-5 3-2z"/><path d="m14342 22517-41 21-3-5-3-5 41-21 3 5z"/><path d="m14295 22528 3 5-4-4z"/><path d="M14302 22537c-17 16-34 28-51 37l-3-5-3-5c17-9 33-21 49-35l4 4z"/><path d="M14251 22574c-18 9-35 16-54 21l-1-6-2-6c18-5 35-11 51-19l3 5z"/><path d="M14197 22595c-35 9-72 11-109 15l-1-6-1-6c37-3 73-6 108-15l2 6z"/><path d="m14085 22610 2-6 1 6h-2z"/><path d="M14085 22610c-7-3-13-7-18-11l3-4 4-5c4 3 9 6 15 8l-2 6z"/><path d="M14067 22599c-5-4-9-8-13-13l5-3 5-3c3 3 6 7 10 10l-4 5z"/><path d="M14054 22586c-3-4-5-10-6-15l5-1 6-2c1 4 3 8 5 12l-5 3z"/><path d="M14048 22571c-2-5-2-11-2-17h12c0 5 0 10 1 14l-6 2zM14046 22554c0-9 1-19 4-29l6 1 6 2c-3 9-4 18-4 26h-6z"/><path d="M14050 22525c3-10 6-21 10-31l6 2 6 2c-4 10-8 20-10 30l-6-2z"/><path d="m14060 22494 27-69 6 2 6 2-27 69-6-2z"/><path d="m14099 22429-6-2 5-3 2 3z"/><path d="M14088 22430c-10-18-20-34-29-45l4-4 5-4c10 12 20 28 30 47l-5 3z"/><path d="M14059 22385c-5-5-9-9-14-12l4-5 3-5c5 3 11 8 16 14l-5 4z"/><path d="M14045 22373c-2-2-4-3-5-4l2-5 2-6c3 1 6 3 8 5l-3 5z"/><path d="M14040 22369c-2 0-4-1-6-1l1-6 1-6c2 0 5 1 8 2l-2 6z"/><path d="m14036 22356-1 6-1-6h1z"/><path d="M14036 22368c-19 2-34 5-47 10l-2-6-2-6c14-4 30-8 49-10l1 6z"/><path d="M13989 22378c-14 4-25 9-35 15l-3-5-3-5c11-6 23-12 37-17l2 6z"/><path d="M13954 22393c-21 12-38 27-58 39l-3-5-3-5c20-13 37-27 58-39l3 5z"/><path d="m13890 22422 3 5-4-4v-1z"/><path d="M13897 22431c-5 6-10 10-15 14l-3-4-4-5c5-4 9-8 14-13l4 4z"/><path d="M13882 22445c-5 4-10 7-15 10l-2-6-3-5c4-2 9-5 13-8l4 5z"/><path d="M13867 22455c-5 2-10 4-14 5l-2-6-1-6c4-1 8-2 12-4l3 5z"/><path d="M13853 22460c-5 1-10 2-15 2v-12c4 0 8-1 12-2l1 6zM13838 22462c-9 0-18-2-27-4l2-6 2-6c7 2 15 4 23 4v6z"/><path d="M13811 22458c-8-3-16-6-25-9l2-6 2-5c9 3 17 6 25 8l-2 6z"/><path d="M13786 22449c-8-3-16-6-24-8l2-6 1-6c9 2 17 6 25 9l-2 5z"/><path d="M13762 22441c-8-3-15-4-23-4v-12c9 0 17 2 26 4l-1 6zM13739 22437h-3v-12h3v6zM13736 22425v6l-6 1-1-7z"/><path d="m13742 22430 15 98-6 1-6 1-15-98 6-1zM13745 22530l6-1-2 6-3-2z"/><path d="m13753 22523 68 26-2 6-2 6-68-26 2-6zM13817 22561l2-6v6h-1z"/><path d="M13819 22549h1v12h-1v-6zM14718 22669l-3-5 5-4 4 6z"/><path d="m14718 22669-49 27-3-5-3-5 49-27 3 5z"/><path d="m14663 22686 3 5-5-4 1-1z"/><path d="m14671 22695-36 45-5-4-5-4 36-45 5 4z"/><path d="m14625 22732 5 4-6 2-1-3z"/><path d="M14636 22734c2 6 5 11 9 16l-4 4-5 4c-5-6-9-13-12-20l6-2z"/><path d="M14645 22750c4 5 9 9 14 13l-3 5-3 5c-7-5-12-10-17-15l5-4z"/><path d="M14659 22763c6 3 13 6 20 9l-2 6-2 5c-8-3-16-6-22-10l3-5z"/><path d="M14679 22772c8 3 16 5 26 6l-1 6-1 6c-10-2-20-4-28-7l2-5zM14703 22790l1-6 1 6h-1z"/><path d="M14703 22778c18-2 34-5 49-11l2 5 2 6c-15 6-33 10-51 12l-1-6z"/><path d="M14752 22767c7-3 14-7 20-11l3 5 4 5c-7 5-15 9-23 12l-2-6z"/><path d="M14772 22756c6-5 12-10 18-16l4 4 4 4c-6 7-12 13-19 18l-4-5z"/><path d="m14798 22748-4-4 5 3v1z"/><path d="m14789 22741 38-56 5 3 5 3-38 56-5-3z"/><path d="m14837 22691-5-3 5-3 2 3z"/><path d="M14827 22691c-4-6-9-11-14-15l4-5 4-4c6 4 11 10 16 18l-5 3z"/><path d="M14813 22676c-5-4-10-7-16-9l2-5 2-6c7 3 14 6 20 11l-4 4z"/><path d="M14797 22667c-13-4-27-5-42-5v-12c16 0 32 1 46 6l-2 6zM14755 22662c-15 0-31 1-46 1v-12c15 0 31-1 46-1v6zM14709 22651v6l-5 4-8-10z"/><path d="m14714 22653 6 7-5 4-5 4-6-7 5-4z"/></g></g></svg>