<!-- spellingbee logo: the bee on a rounded rect in the game's accent
     yellow (#f7da21) with the thin darker accent-edge border (#a86b00),
     mirroring how the center hex is drawn (theme.css tokens; SVG files
     can't read CSS custom properties, so the hex values are inlined).
     Cleaned with svgo; the original's full-canvas near-white background
     and an invisible watermark row of tiny squares were dropped. -->
<svg xmlns="http://www.w3.org/2000/svg" role="img" aria-label="spellingbee" viewBox="0 0 2000 2000">
    <rect x="30" y="30" width="1940" height="1940" rx="240" fill="#f7da21" stroke="#a86b00" stroke-width="60"/>
    <path fill="#3e454e" fill-rule="evenodd" d="M987.98 713.691c-433.777 525.055-243.175 800.235-22.023 825.844v83.156c0 18.868 15.29 34.157 34.152 34.157 18.86 0 34.16-15.29 34.16-34.157v-83.156c221.141-25.578 411.75-300.781-22.007-825.824 68.129 1.539 138.187 15.66 242.558 42.289.84-8.32 1.27-16.648 1.27-24.95 0-70.741-28.68-134.78-75.04-181.128a256.6 256.6 0 0 0-62.019-45.711c2.7-15.422 8.278-30.242 15.68-43.5 8.777-15.75 19.77-28.871 31.258-37.86 9.25-7.242 18.043-11.472 24.96-11.523 1.41 0 2.7.281 3.782.883 16.46 9.168 37.23 3.27 46.398-13.18 9.18-16.453 3.27-37.222-13.18-46.402-11.628-6.488-24.269-9.48-37.417-9.399-22.434.141-45.614 9.7-66.461 26.02-18.61 14.57-35.84 34.781-48.922 58.238-9.04 16.211-16.258 34.192-20.77 53.192-17.55-3.801-35.757-5.801-54.441-5.801-27.137 0-53.285 4.23-77.828 12.05-4.344-21.308-12.13-41.46-22.153-59.44-13.082-23.458-30.316-43.669-48.925-58.239-20.848-16.32-44.028-25.879-66.461-26.02-13.145-.082-25.781 2.918-37.418 9.399-16.453 9.18-22.352 29.95-13.18 46.402 9.172 16.45 29.945 22.348 46.399 13.18 1.086-.602 2.37-.883 3.789-.883 6.918.05 15.71 4.281 24.957 11.524 11.484 8.988 22.48 22.109 31.261 37.859 9.578 17.18 16.118 36.969 17.286 57.289a257 257 0 0 0-38.86 31.922c-46.36 46.348-75.031 110.387-75.031 181.129 0 8.277.422 16.57 1.254 24.86 104.597-26.72 174.754-40.77 242.972-42.22"/>
    <path fill="#f4f7fa" fill-rule="evenodd" d="M729.73 1218.91c-3.007 29.824-2.94 57.668.051 83.36 92.082 12.43 183.582 18.113 274.547 17.644 89.293-.46 178-6.84 266.184-18.57 2.918-25.68 2.976-53.473-.09-83.266-88.41 12.52-177.23 19.336-266.512 19.797-90.816.469-182.191-5.625-274.18-18.965m63.625-210.258c-12.894 27.239-23.785 53.461-32.675 78.621 81.586 11.625 162.675 16.942 243.3 16.489 78.899-.446 157.301-6.407 235.25-17.371-8.93-25.157-19.851-51.38-32.78-78.606-67.34 8.781-134.95 13.55-202.84 13.938-69.723.39-139.794-3.832-210.255-13.07"/>
    <path fill="#f4f7fa" d="M1045.762 691.41c391.129-29.601 610.508 84.692 709.488 226.63 79.57 114.108 81.93 246.448 33.52 340.53-50.54 98.235-154.36 155.868-283.848 113.899-144.973-46.989-323.8-226.516-488.184-634.39l-17.39-43.15z"/>
    <path fill="none" stroke="#3e454e" stroke-linecap="round" stroke-linejoin="round" stroke-miterlimit="2.613" stroke-width="239.998" d="M10457.617 13085.898c3911.29 296.016 6105.078-846.914 7094.883-2266.289 795.703-1141.093 819.297-2464.492 335.195-3405.312-505.39-982.344-1543.593-1558.672-2838.476-1138.984-1449.727 469.882-3238.008 2265.156-4881.836 6343.906l-173.906 431.484Zm0 0" style="stroke-width:540.0000153;stroke-dasharray:none" transform="matrix(.1 0 0 -.1 0 2000)"/>
    <path fill="#f4f7fa" d="M954.164 691.41c-391.14-29.601-610.512 84.692-709.492 226.63-79.57 114.108-81.93 246.448-33.524 340.53 50.543 98.235 154.364 155.868 283.856 113.899 144.969-46.989 323.8-226.516 488.18-634.39l17.386-43.15z"/>
    <path fill="none" stroke="#3e454e" stroke-linecap="round" stroke-linejoin="round" stroke-miterlimit="2.613" stroke-width="239.998" d="M9541.64 13085.898c-3911.406 296.016-6105.117-846.914-7094.921-2266.289-795.703-1141.093-819.297-2464.492-335.235-3405.312 505.43-982.344 1543.633-1558.672 2838.555-1138.984 1449.688 469.882 3238.008 2265.156 4881.797 6343.906l173.867 431.484Zm0 0" style="stroke-width:540.0000153;stroke-dasharray:none" transform="matrix(.1 0 0 -.1 0 2000)"/>
</svg>
