<svg xmlns="http://www.w3.org/2000/svg" viewBox="0 0 64 64" role="img" aria-label="SyrupSwap">
  <rect x="4" y="4" width="56" height="56" rx="12" fill="#e6a23c"/>
  <g fill="#b9772a">
    <rect x="13" y="13" width="10" height="10" rx="2"/>
    <rect x="27" y="13" width="10" height="10" rx="2"/>
    <rect x="41" y="13" width="10" height="10" rx="2"/>
    <rect x="13" y="27" width="10" height="10" rx="2"/>
    <rect x="27" y="27" width="10" height="10" rx="2"/>
    <rect x="41" y="27" width="10" height="10" rx="2"/>
    <rect x="13" y="41" width="10" height="10" rx="2"/>
    <rect x="27" y="41" width="10" height="10" rx="2"/>
    <rect x="41" y="41" width="10" height="10" rx="2"/>
  </g>
  <path d="M20 6c0 5 8 5 8 11s-8 6-8 11" fill="none" stroke="#7a4a17" stroke-width="3" stroke-linecap="round" opacity="0.55"/>
</svg>
