<?xml version="1.0" encoding="UTF-8" standalone="no"?>
<!-- bananagrams logo: a peeled banana. "Banana - lineart" (coloured) by
     Frank Tremmel, 2016, CC0 / public domain (license lived in the stripped
     RDF metadata; recorded here instead). Cleaned with svgo — the polkadot
     patterns + gradients that remain are the banana's real speckle/shading
     texture, not leftovers. -->

<svg
   role="img"
   aria-label="bananagrams"
   viewBox="-5 -5 123.386 121.817"
   version="1.1"
   id="svg105"
   sodipodi:docname="logo.svg"
   inkscape:version="1.4.4 (dcaf3e7, 2026-05-05)"
   xmlns:inkscape="http://www.inkscape.org/namespaces/inkscape"
   xmlns:sodipodi="http://sodipodi.sourceforge.net/DTD/sodipodi-0.dtd"
   xmlns:xlink="http://www.w3.org/1999/xlink"
   xmlns="http://www.w3.org/2000/svg"
   xmlns:svg="http://www.w3.org/2000/svg">
  <sodipodi:namedview
     id="namedview105"
     pagecolor="#ffffff"
     bordercolor="#000000"
     borderopacity="0.25"
     inkscape:showpageshadow="2"
     inkscape:pageopacity="0.0"
     inkscape:pagecheckerboard="0"
     inkscape:deskcolor="#d1d1d1"
     inkscape:zoom="3.7203645"
     inkscape:cx="56.446082"
     inkscape:cy="55.9085"
     inkscape:window-width="1336"
     inkscape:window-height="849"
     inkscape:window-x="0"
     inkscape:window-y="38"
     inkscape:window-maximized="0"
     inkscape:current-layer="svg105"
     showguides="false" />
  <title
     id="title1">Banana - lineart</title>
  <defs
     id="defs91">
    <pattern
       xlink:href="#a"
       id="j"
       patternTransform="scale(.6125 .5625)" />
    <pattern
       xlink:href="#a"
       id="i"
       patternTransform="scale(.575 .7625)" />
    <pattern
       xlink:href="#a"
       id="h"
       patternTransform="scale(.67503 .68387)" />
    <pattern
       xlink:href="#a"
       id="g"
       patternTransform="scale(.89064 .8376)" />
    <pattern
       id="a"
       width="10"
       height="10"
       patternTransform="scale(10)"
       patternUnits="userSpaceOnUse">
      <circle
         cx="2.567"
         cy=".81"
         r=".45"
         style="fill:#000;stroke:none"
         id="circle1" />
      <circle
         cx="3.048"
         cy="2.33"
         r=".45"
         style="fill:#000;stroke:none"
         id="circle2" />
      <circle
         cx="4.418"
         cy="2.415"
         r=".45"
         style="fill:#000;stroke:none"
         id="circle3" />
      <circle
         cx="1.844"
         cy="3.029"
         r=".45"
         style="fill:#000;stroke:none"
         id="circle4" />
      <circle
         cx="6.08"
         cy="1.363"
         r=".45"
         style="fill:#000;stroke:none"
         id="circle5" />
      <circle
         cx="5.819"
         cy="4.413"
         r=".45"
         style="fill:#000;stroke:none"
         id="circle6" />
      <circle
         cx="4.305"
         cy="4.048"
         r=".45"
         style="fill:#000;stroke:none"
         id="circle7" />
      <circle
         cx="5.541"
         cy="3.045"
         r=".45"
         style="fill:#000;stroke:none"
         id="circle8" />
      <circle
         cx="4.785"
         cy="5.527"
         r=".45"
         style="fill:#000;stroke:none"
         id="circle9" />
      <circle
         cx="2.667"
         cy="5.184"
         r=".45"
         style="fill:#000;stroke:none"
         id="circle10" />
      <circle
         cx="7.965"
         cy="1.448"
         r=".45"
         style="fill:#000;stroke:none"
         id="circle11" />
      <circle
         cx="7.047"
         cy="5.049"
         r=".45"
         style="fill:#000;stroke:none"
         id="circle12" />
      <circle
         cx="4.34"
         cy=".895"
         r=".45"
         style="fill:#000;stroke:none"
         id="circle13" />
      <circle
         cx="7.125"
         cy=".34"
         r=".45"
         style="fill:#000;stroke:none"
         id="circle14" />
      <circle
         cx="9.553"
         cy="1.049"
         r=".45"
         style="fill:#000;stroke:none"
         id="circle15" />
      <circle
         cx="7.006"
         cy="2.689"
         r=".45"
         style="fill:#000;stroke:none"
         id="circle16" />
      <circle
         cx="8.909"
         cy="2.689"
         r=".45"
         style="fill:#000;stroke:none"
         id="circle17" />
      <circle
         cx="9.315"
         cy="4.407"
         r=".45"
         style="fill:#000;stroke:none"
         id="circle18" />
      <circle
         cx="7.82"
         cy="3.87"
         r=".45"
         style="fill:#000;stroke:none"
         id="circle19" />
      <circle
         cx="8.27"
         cy="5.948"
         r=".45"
         style="fill:#000;stroke:none"
         id="circle20" />
      <circle
         cx="7.973"
         cy="7.428"
         r=".45"
         style="fill:#000;stroke:none"
         id="circle21" />
      <circle
         cx="9.342"
         cy="8.072"
         r=".45"
         style="fill:#000;stroke:none"
         id="circle22" />
      <circle
         cx="8.206"
         cy="9.315"
         r=".45"
         style="fill:#000;stroke:none"
         id="circle23" />
      <circle
         cx="9.682"
         cy="9.475"
         r=".45"
         style="fill:#000;stroke:none"
         id="circle24" />
      <circle
         cx="9.688"
         cy="6.186"
         r=".45"
         style="fill:#000;stroke:none"
         id="circle25" />
      <circle
         cx="3.379"
         cy="6.296"
         r=".45"
         style="fill:#000;stroke:none"
         id="circle26" />
      <circle
         cx="2.871"
         cy="8.204"
         r=".45"
         style="fill:#000;stroke:none"
         id="circle27" />
      <circle
         cx="4.59"
         cy="8.719"
         r=".45"
         style="fill:#000;stroke:none"
         id="circle28" />
      <circle
         cx="3.181"
         cy="9.671"
         r=".45"
         style="fill:#000;stroke:none"
         id="circle29" />
      <circle
         cx="5.734"
         cy="7.315"
         r=".45"
         style="fill:#000;stroke:none"
         id="circle30" />
      <circle
         cx="6.707"
         cy="6.513"
         r=".45"
         style="fill:#000;stroke:none"
         id="circle31" />
      <circle
         cx="5.73"
         cy="9.67"
         r=".45"
         style="fill:#000;stroke:none"
         id="circle32" />
      <circle
         cx="6.535"
         cy="8.373"
         r=".45"
         style="fill:#000;stroke:none"
         id="circle33" />
      <circle
         cx="4.37"
         cy="7.154"
         r=".45"
         style="fill:#000;stroke:none"
         id="circle34" />
      <circle
         cx=".622"
         cy="7.25"
         r=".45"
         style="fill:#000;stroke:none"
         id="circle35" />
      <circle
         cx=".831"
         cy="5.679"
         r=".45"
         style="fill:#000;stroke:none"
         id="circle36" />
      <circle
         cx="1.257"
         cy="8.519"
         r=".45"
         style="fill:#000;stroke:none"
         id="circle37" />
      <circle
         cx="1.989"
         cy="6.877"
         r=".45"
         style="fill:#000;stroke:none"
         id="circle38" />
      <circle
         cx=".374"
         cy="3.181"
         r=".45"
         style="fill:#000;stroke:none"
         id="circle39" />
      <circle
         cx="1.166"
         cy="1.664"
         r=".45"
         style="fill:#000;stroke:none"
         id="circle40" />
      <circle
         cx="1.151"
         cy=".093"
         r=".45"
         style="fill:#000;stroke:none"
         id="circle41" />
      <circle
         cx="1.151"
         cy="10.093"
         r=".45"
         style="fill:#000;stroke:none"
         id="circle42" />
      <circle
         cx="1.302"
         cy="4.451"
         r=".45"
         style="fill:#000;stroke:none"
         id="circle43" />
      <circle
         cx="3.047"
         cy="3.763"
         r=".45"
         style="fill:#000;stroke:none"
         id="circle44" />
    </pattern>
    <pattern
       xlink:href="#b"
       id="f"
       patternTransform="matrix(1.94525 0 0 1.99345 -4.498 -4.345)" />
    <pattern
       id="b"
       width="10"
       height="10"
       patternTransform="scale(10)"
       patternUnits="userSpaceOnUse">
      <circle
         cx="2.567"
         cy=".81"
         r=".15"
         style="fill:#000;stroke:none"
         id="circle45" />
      <circle
         cx="3.048"
         cy="2.33"
         r=".15"
         style="fill:#000;stroke:none"
         id="circle46" />
      <circle
         cx="4.418"
         cy="2.415"
         r=".15"
         style="fill:#000;stroke:none"
         id="circle47" />
      <circle
         cx="1.844"
         cy="3.029"
         r=".15"
         style="fill:#000;stroke:none"
         id="circle48" />
      <circle
         cx="6.08"
         cy="1.363"
         r=".15"
         style="fill:#000;stroke:none"
         id="circle49" />
      <circle
         cx="5.819"
         cy="4.413"
         r=".15"
         style="fill:#000;stroke:none"
         id="circle50" />
      <circle
         cx="4.305"
         cy="4.048"
         r=".15"
         style="fill:#000;stroke:none"
         id="circle51" />
      <circle
         cx="5.541"
         cy="3.045"
         r=".15"
         style="fill:#000;stroke:none"
         id="circle52" />
      <circle
         cx="4.785"
         cy="5.527"
         r=".15"
         style="fill:#000;stroke:none"
         id="circle53" />
      <circle
         cx="2.667"
         cy="5.184"
         r=".15"
         style="fill:#000;stroke:none"
         id="circle54" />
      <circle
         cx="7.965"
         cy="1.448"
         r=".15"
         style="fill:#000;stroke:none"
         id="circle55" />
      <circle
         cx="7.047"
         cy="5.049"
         r=".15"
         style="fill:#000;stroke:none"
         id="circle56" />
      <circle
         cx="4.34"
         cy=".895"
         r=".15"
         style="fill:#000;stroke:none"
         id="circle57" />
      <circle
         cx="7.125"
         cy=".34"
         r=".15"
         style="fill:#000;stroke:none"
         id="circle58" />
      <circle
         cx="9.553"
         cy="1.049"
         r=".15"
         style="fill:#000;stroke:none"
         id="circle59" />
      <circle
         cx="7.006"
         cy="2.689"
         r=".15"
         style="fill:#000;stroke:none"
         id="circle60" />
      <circle
         cx="8.909"
         cy="2.689"
         r=".15"
         style="fill:#000;stroke:none"
         id="circle61" />
      <circle
         cx="9.315"
         cy="4.407"
         r=".15"
         style="fill:#000;stroke:none"
         id="circle62" />
      <circle
         cx="7.82"
         cy="3.87"
         r=".15"
         style="fill:#000;stroke:none"
         id="circle63" />
      <circle
         cx="8.27"
         cy="5.948"
         r=".15"
         style="fill:#000;stroke:none"
         id="circle64" />
      <circle
         cx="7.973"
         cy="7.428"
         r=".15"
         style="fill:#000;stroke:none"
         id="circle65" />
      <circle
         cx="9.342"
         cy="8.072"
         r=".15"
         style="fill:#000;stroke:none"
         id="circle66" />
      <circle
         cx="8.206"
         cy="9.315"
         r=".15"
         style="fill:#000;stroke:none"
         id="circle67" />
      <circle
         cx="9.682"
         cy="9.475"
         r=".15"
         style="fill:#000;stroke:none"
         id="circle68" />
      <circle
         cx="9.688"
         cy="6.186"
         r=".15"
         style="fill:#000;stroke:none"
         id="circle69" />
      <circle
         cx="3.379"
         cy="6.296"
         r=".15"
         style="fill:#000;stroke:none"
         id="circle70" />
      <circle
         cx="2.871"
         cy="8.204"
         r=".15"
         style="fill:#000;stroke:none"
         id="circle71" />
      <circle
         cx="4.59"
         cy="8.719"
         r=".15"
         style="fill:#000;stroke:none"
         id="circle72" />
      <circle
         cx="3.181"
         cy="9.671"
         r=".15"
         style="fill:#000;stroke:none"
         id="circle73" />
      <circle
         cx="5.734"
         cy="7.315"
         r=".15"
         style="fill:#000;stroke:none"
         id="circle74" />
      <circle
         cx="6.707"
         cy="6.513"
         r=".15"
         style="fill:#000;stroke:none"
         id="circle75" />
      <circle
         cx="5.73"
         cy="9.67"
         r=".15"
         style="fill:#000;stroke:none"
         id="circle76" />
      <circle
         cx="6.535"
         cy="8.373"
         r=".15"
         style="fill:#000;stroke:none"
         id="circle77" />
      <circle
         cx="4.37"
         cy="7.154"
         r=".15"
         style="fill:#000;stroke:none"
         id="circle78" />
      <circle
         cx=".622"
         cy="7.25"
         r=".15"
         style="fill:#000;stroke:none"
         id="circle79" />
      <circle
         cx=".831"
         cy="5.679"
         r=".15"
         style="fill:#000;stroke:none"
         id="circle80" />
      <circle
         cx="1.257"
         cy="8.519"
         r=".15"
         style="fill:#000;stroke:none"
         id="circle81" />
      <circle
         cx="1.989"
         cy="6.877"
         r=".15"
         style="fill:#000;stroke:none"
         id="circle82" />
      <circle
         cx=".374"
         cy="3.181"
         r=".15"
         style="fill:#000;stroke:none"
         id="circle83" />
      <circle
         cx="1.166"
         cy="1.664"
         r=".15"
         style="fill:#000;stroke:none"
         id="circle84" />
      <circle
         cx="1.151"
         cy=".093"
         r=".15"
         style="fill:#000;stroke:none"
         id="circle85" />
      <circle
         cx="1.151"
         cy="10.093"
         r=".15"
         style="fill:#000;stroke:none"
         id="circle86" />
      <circle
         cx="1.302"
         cy="4.451"
         r=".15"
         style="fill:#000;stroke:none"
         id="circle87" />
      <circle
         cx="3.047"
         cy="3.763"
         r=".15"
         style="fill:#000;stroke:none"
         id="circle88" />
    </pattern>
    <radialGradient
       xlink:href="#c"
       id="e"
       cx="51.468"
       cy="138.857"
       r="10.069"
       fx="51.468"
       fy="138.857"
       gradientTransform="matrix(1.12283,-0.00618,0.017,3.08756,-7.669,-351.47)"
       gradientUnits="userSpaceOnUse" />
    <radialGradient
       xlink:href="#d"
       id="k"
       cx="98.111"
       cy="127.2"
       r="4.125"
       fx="98.111"
       fy="127.2"
       gradientTransform="matrix(1,0,0,1.10606,-57.606,-98.54)"
       gradientUnits="userSpaceOnUse" />
    <linearGradient
       id="d">
      <stop
         offset="0"
         style="stop-color:#b78d2e;stop-opacity:1"
         id="stop88" />
      <stop
         offset="1"
         style="stop-color:#b78d2e;stop-opacity:0"
         id="stop89" />
    </linearGradient>
    <linearGradient
       id="c">
      <stop
         offset="0"
         style="stop-color:#ffcb00;stop-opacity:0"
         id="stop90" />
      <stop
         offset="1"
         style="stop-color:#b78d2e;stop-opacity:.59628773"
         id="stop91" />
    </linearGradient>
    <clipPath
       clipPathUnits="userSpaceOnUse"
       id="clipPath2">
      <rect
         x="34.450871"
         y="-34.631344"
         width="83.534996"
         height="91.102013"
         rx="9.7958717"
         fill="none"
         stroke="#6c5353"
         stroke-width="3.8"
         id="rect2"
         transform="matrix(0.90663463,0.42191663,-0.42332056,0.90597997,0,0)" />
    </clipPath>
  </defs>
  <!-- Thin brown rounded-rect frame (the bordered-tile treatment the
       spellingbee logo uses); the brown echoes the banana's dark lineart.
       The viewBox is expanded 5 units per side to make room for it. -->
  <g
     id="g1"
     transform="matrix(1.2948041,-0.54564119,0.60499925,1.1724999,-52.236269,41.249147)"
     style="stroke-width:0.735559"
     clip-path="url(#clipPath2)">
    <path
       d="m 61.569,46.624 -3.86,3.534 c -2.38,2.617 -2.54,6.478 -2.88,9.095 l -2.486,-8.048 c -1.44,-2.172 -2.88,-2.986 -4.32,-3.795 -2.276,-0.523 -4.124,-0.331 -6.87,-1.636 -0.166,-5.544 0.341,-11.426 1.57,-17.668 1.654,-6.068 2.738,-12.16 8.245,-18.06 3.397,-4.876 7.894,-6.009 12.106,-8.114 3.01,-0.743 5.553,0.072 8.049,1.047 0.686,1.117 1.778,1.917 0.981,4.188 l -3.403,8.376 c -2.852,5.333 -4.49,9.857 -6.347,14.526 -1.555,5.883 -1.465,7.77 -1.897,10.928 -0.051,1.366 0.026,2.314 0.17,3.043"
       style="fill:#ffefbf;fill-opacity:1;fill-rule:evenodd;stroke:#55d400;stroke-width:0.223755;stroke-linecap:butt;stroke-linejoin:miter;stroke-miterlimit:4;stroke-dasharray:none;stroke-opacity:1"
       transform="translate(3.543,2.759)"
       id="path91" />
    <path
       d="m 60.391,43.876 c 0,-0.654 0.131,-3.795 0.131,-3.795 l 4.188,-3.534 c 1.163,-0.523 2.686,0.031 4.188,0.524 1.869,0.837 2.226,1.913 1.308,3.795 l 7.33,-0.523 c 3.018,0.418 5.697,1.517 8.375,2.617 l 8.245,6.544 8.768,10.47 c 0.842,2.098 2.203,2.638 2.094,7.59 l -3.14,1.047 -2.75,-7.329 -10.076,-6.805 c -6.55,-4.211 -11.07,-5.714 -15.574,-7.198 3.563,6.457 7.715,10.853 9.292,13.087 l -3.14,1.963 -5.105,-4.842 C 70.754,56.753 67.527,55.203 64.448,53.43 l 0.524,6.674 6.02,25.65 c 0.857,3.629 0.93,7.06 0.392,10.34 -0.195,2.142 -1.027,4.444 -2.617,6.936 l -5.497,-0.131 c -2.18,0.64 -4.362,-1.448 -6.543,-2.748 -2.749,-3.255 -5.497,-5.548 -8.245,-12.433 -1.963,-4.92 -3.926,-8.859 -5.89,-17.406 l -2.224,-9.946 -0.785,7.852 -0.393,10.339 c -0.438,5.3 -0.813,8.78 0.785,13.741 0.167,3.718 -1.64,3.094 -3.14,3.141 l -3.796,-7.46 c -2.181,-3.539 -4.362,-7.133 -6.543,-12.04 -2.105,-6.315 -2.247,-10.423 -1.57,-13.61 -0.568,-4.464 1.022,-7.49 2.486,-10.6 2.933,-4.679 6.29,-6.394 9.553,-8.769 -0.496,-2.03 -2.429,-3.772 -6.412,-5.104 -2.238,0.189 -2.779,-0.988 -8.769,2.356 -2.926,3.23 -4.53,5.798 -5.366,7.983 l -4.187,10.6 -6.02,8.114 C 5.643,68.25 5.076,69.224 4.509,71.883 l -0.262,5.234 -3.664,-1.701 1.047,-8.9 5.627,-8.898 c 1.178,-3.458 2.356,-6.56 3.534,-10.994 1.57,-4.685 3.14,-6.826 4.711,-8.768 3.628,-4.149 6.898,-4.615 10.208,-6.543 l 7.722,0.13 c 3.942,1.362 6.483,3.525 7.983,6.282 l -0.131,7.722 c 1.832,1.089 3.354,1.56 4.842,1.963 l 4.188,1.177 c 2.986,4.08 3.28,5.919 4.319,8.376 0.607,-2.104 0.57,-3.458 3.14,-7.852 l 4.058,-2.617"
       style="fill:#ffcb00;fill-opacity:1;fill-rule:evenodd;stroke:#ff00ff;stroke-width:0.223755;stroke-linecap:butt;stroke-linejoin:miter;stroke-miterlimit:4;stroke-dasharray:none;stroke-opacity:1"
       transform="translate(3.543,2.759)"
       id="path92" />
    <path
       d="m 45.75,47.8 c 0,0 2.812,0.022 5.44,1.747 -3.524,5.423 -4.594,19.087 -3.94,25.127 0.49,4.534 4.287,11.097 6.92,16.224 3.35,6.523 7.81,11.511 6.83,11.651 0,0 -4.582,-2.435 -8.125,-7 -3.543,-4.565 -7.524,-14.701 -9.25,-21 C 41.899,68.25 40.974,62.677 41,58.8 c 0.026,-3.877 1.132,-6.144 2.125,-8 0.993,-1.856 2.625,-3 2.625,-3"
       style="opacity:1;fill:url(#e);fill-opacity:1;fill-rule:evenodd;stroke:none;stroke-width:0.213717;stroke-linecap:butt;stroke-linejoin:miter;stroke-miterlimit:4;stroke-dasharray:none;stroke-opacity:1"
       transform="translate(3.543,2.759)"
       id="path93" />
    <path
       d="m 43.532,46.707 c 0,0 -2.697,3.393 -3.5,5.375 -1.961,4.84 -1.89,9.245 -2.438,14.437 -0.249,2.363 0.524,6.024 0.188,8.375 -0.841,5.878 -1.688,14.188 -0.375,16.563 l 2.625,2.125 c -0.472,-1.945 -1.663,-3.17 -1.375,-5.875 l -0.5,-3.625 1.187,-8.625 -0.062,-10.625 c 0.376,-3.542 0.547,-6.982 1.875,-11 0.733,-2.238 1.898,-4.428 4.125,-6.5 z"
       style="opacity:1;fill:#ffe087;fill-opacity:1;fill-rule:evenodd;stroke:none;stroke-width:0.213717;stroke-linecap:butt;stroke-linejoin:miter;stroke-miterlimit:4;stroke-dasharray:none;stroke-opacity:1"
       transform="translate(3.543,2.759)"
       id="path94" />
    <path
       d="m 60.373,43.758 c 0,-0.655 0.13,-3.796 0.13,-3.796 l 4.189,-3.533 c 1.163,-0.523 2.685,0.03 4.187,0.523 1.87,0.837 2.227,1.914 1.31,3.796 l 7.328,-0.524 c 3.019,0.419 5.698,1.518 8.376,2.618 l 8.245,6.543 8.768,10.47 c 0.842,2.099 2.203,2.639 2.094,7.59 l -3.141,1.047 -2.748,-7.328 -10.077,-6.806 c -6.55,-4.21 -11.07,-5.714 -15.574,-7.198 3.563,6.457 7.715,10.854 9.292,13.087 l -3.141,1.964 -5.104,-4.843 C 70.736,56.634 67.508,55.084 64.43,53.311 l 0.523,6.675 6.02,25.65 c 0.858,3.628 0.93,7.06 0.393,10.34 -0.195,2.142 -1.027,4.444 -2.617,6.935 l -5.497,-0.13 c -2.181,0.64 -4.362,-1.449 -6.544,-2.749 C 53.96,96.778 51.212,94.484 48.464,87.6 46.501,82.68 44.537,78.74 42.574,70.194 L 40.35,60.247 39.564,68.1 39.172,78.439 c -0.439,5.3 -0.814,8.78 0.785,13.741 0.167,3.718 -1.64,3.093 -3.14,3.14 l -3.796,-7.459 c -2.181,-3.539 -4.363,-7.133 -6.544,-12.04 -2.105,-6.316 -2.246,-10.423 -1.57,-13.61 -0.567,-4.465 1.023,-7.49 2.486,-10.601 2.934,-4.678 6.291,-6.394 9.554,-8.768 -0.496,-2.03 -2.43,-3.772 -6.413,-5.104 -2.237,0.188 -2.778,-0.988 -8.768,2.355 -2.927,3.23 -4.53,5.799 -5.366,7.983 l -4.188,10.601 -6.02,8.114 c -0.567,1.34 -1.134,2.315 -1.701,4.973 L 4.229,77 0.565,75.298 1.612,66.398 7.239,57.5 c 1.178,-3.458 2.356,-6.559 3.534,-10.993 1.57,-4.685 3.14,-6.826 4.711,-8.768 3.628,-4.15 6.898,-4.615 10.208,-6.544 l 7.721,0.131 c 3.942,1.362 6.483,3.525 7.984,6.282 l -0.131,7.721 c 1.831,1.09 3.354,1.561 4.842,1.963 l 4.188,1.178 c 2.985,4.08 3.28,5.919 4.319,8.376 0.607,-2.104 0.57,-3.458 3.14,-7.852 l 4.057,-2.618"
       style="opacity:0.19;fill:url(#f);fill-opacity:1;fill-rule:evenodd;stroke:#ff00ff;stroke-width:0.223755;stroke-linecap:butt;stroke-linejoin:miter;stroke-miterlimit:4;stroke-dasharray:none;stroke-opacity:1"
       transform="translate(3.543,2.759)"
       id="path95" />
    <path
       d="m 38.331,44.953 c 0,0 -1.604,2.03 -3.38,4.667 -1.776,2.637 -4.16,5.926 -4.889,8.465 -1.636,5.702 -1.084,11.649 -0.246,17.417 0.306,2.103 1.665,5.615 2.731,8.152 1.066,2.538 3.554,9.914 3.554,9.914 1.385,-0.134 2.616,-0.73 3.622,-2 0,0 -1.68,-3.423 -2.93,-5.758 -0.54,-1.008 -0.734,-1.092 -0.793,-1.711 -0.248,-2.632 -1.153,-6.195 -1.063,-8.103 0.18,-3.858 -0.082,-7.186 0.1,-10.968 0.142,-2.951 0.634,-6.011 1.489,-8.83 0.296,-0.978 1.111,-2.462 1.85,-3.66 0.739,-1.198 2.25,-3.995 2.25,-3.995 0,0 -2.382,2.217 -3.14,3.445 -0.757,1.228 -1.601,2.713 -1.962,3.905 -0.883,2.913 -1.386,6.052 -1.532,9.084 -0.185,3.858 0.077,7.188 -0.1,10.97 -0.11,2.345 0.195,5.827 0.47,8.52 -0.31,-0.69 -0.34,-0.702 -0.707,-1.575 -1.054,-2.509 -2.53,-5.533 -2.802,-7.399 -0.83,-5.719 -1.28,-11.804 0.286,-17.26 0.654,-2.278 2.573,-5.641 4.325,-8.242 1.753,-2.6 3.405,-4.745 3.405,-4.745 z"
       style="color:#000000;font-style:normal;font-variant:normal;font-weight:400;font-stretch:normal;font-size:medium;line-height:normal;font-family:sans-serif;text-indent:0;text-align:start;text-decoration:none;text-decoration-line:none;text-decoration-style:solid;text-decoration-color:#000000;letter-spacing:normal;word-spacing:normal;text-transform:none;writing-mode:lr-tb;direction:ltr;baseline-shift:baseline;text-anchor:start;white-space:normal;clip-rule:nonzero;display:inline;overflow:visible;visibility:visible;opacity:1;isolation:auto;mix-blend-mode:normal;color-interpolation:sRGB;color-interpolation-filters:linearRGB;solid-color:#000000;solid-opacity:1;fill:#dbb911;fill-opacity:1;fill-rule:evenodd;stroke:none;stroke-width:0.735559px;stroke-linecap:butt;stroke-linejoin:miter;stroke-miterlimit:4;stroke-dasharray:none;stroke-dashoffset:0;stroke-opacity:1;color-rendering:auto;image-rendering:auto;shape-rendering:auto;text-rendering:auto"
       transform="translate(3.543,2.759)"
       id="path96" />
    <path
       d="m 71.317,3.477 c -4.27,1.147 -8.724,2.466 -11.965,5.676 -5.023,4.974 -8.712,11.246 -10.854,17.94 -1.819,5.685 -3.173,13.413 -3.614,19.332 0.36,0.248 0.785,0.47 1.453,0.44 -0.059,-4.193 0.812,-8.332 1.506,-12.449 1.414,-8.393 4.992,-16.508 10.707,-22.869 2.123,-2.363 4.65,-4.48 7.752,-5.365 1.054,-0.301 3.735,-1.598 3.906,-0.976 -2.56,4.577 -5.587,8.873 -8.163,13.436 -3.407,6.038 -5.477,12.804 -6.562,19.636 -0.932,5.869 -1.305,11.812 -1.599,17.744 1.665,0.58 1.07,-1.31 1.242,-2.38 0.57,-8.428 1.203,-16.956 3.875,-25.042 1.722,-5.212 4.251,-10.09 7.261,-14.663 2.06,-3.128 3.888,-6.401 5.768,-9.64 -0.377,-0.203 -0.715,-0.324 -0.713,-0.82"
       style="color:#000000;font-style:normal;font-variant:normal;font-weight:400;font-stretch:normal;font-size:medium;line-height:normal;font-family:sans-serif;text-indent:0;text-align:start;text-decoration:none;text-decoration-line:none;text-decoration-style:solid;text-decoration-color:#000000;letter-spacing:normal;word-spacing:normal;text-transform:none;writing-mode:lr-tb;direction:ltr;baseline-shift:baseline;text-anchor:start;white-space:normal;clip-rule:nonzero;display:inline;overflow:visible;visibility:visible;opacity:1;isolation:auto;mix-blend-mode:normal;color-interpolation:sRGB;color-interpolation-filters:linearRGB;solid-color:#000000;solid-opacity:1;fill:#c7a387;fill-opacity:0.356863;fill-rule:evenodd;stroke:none;stroke-width:0.781892;stroke-linecap:butt;stroke-linejoin:miter;stroke-miterlimit:4;stroke-dasharray:none;stroke-dashoffset:0;stroke-opacity:1;color-rendering:auto;image-rendering:auto;shape-rendering:auto;text-rendering:auto"
       transform="translate(3.543,2.759)"
       id="path97" />
    <path
       d="m 43.875,47.05 c 0,0 -2.697,3.393 -3.5,5.374 -1.96,4.84 -1.89,9.245 -2.437,14.438 -0.25,2.362 0.523,6.023 0.187,8.375 -0.841,5.877 -1.687,14.187 -0.375,16.562 l 2.625,2.125 C 39.904,91.979 38.712,90.754 39,88.049 l -0.5,-3.625 1.188,-8.625 -0.063,-10.625 c 0.376,-3.542 0.547,-6.982 1.875,-11 0.733,-2.238 1.898,-4.428 4.125,-6.5 z"
       style="opacity:0.387;fill:url(#g);fill-opacity:1;fill-rule:evenodd;stroke:none;stroke-width:0.213717;stroke-linecap:butt;stroke-linejoin:miter;stroke-miterlimit:4;stroke-dasharray:none;stroke-opacity:1"
       transform="translate(3.543,2.759)"
       id="path98" />
    <path
       d="m 54.5,52.3 c 0,0 3.5,-5.288 6.03,-7.022 2.177,-1.492 4.458,-2.57 7.095,-2.479 4.728,0.164 9.402,2.029 13.64,4.131 6.336,3.144 18.635,12.067 18.635,12.067 l 4.476,4.052 0.5,5.25 -3.125,0.375 -1.75,-4.75 -2,-3.375 c 0,0 -6.968,-5.17 -11.372,-7.646 -3.704,-2.082 -8.875,-4.681 -12.878,-6.104 -2.21,-0.785 -4.53,-1.58 -6.875,-1.5 -2.082,0.072 -4.312,0.529 -6,1.75 -2.743,1.986 -4.866,4.398 -5.75,8.375 -0.53,-1.414 -0.625,-3.125 -0.625,-3.125"
       style="opacity:1;fill:#ffe087;fill-opacity:1;fill-rule:evenodd;stroke:none;stroke-width:0.213717;stroke-linecap:butt;stroke-linejoin:miter;stroke-miterlimit:4;stroke-dasharray:none;stroke-opacity:1"
       transform="translate(3.543,2.759)"
       id="path99" />
    <path
       d="m 54.5,52.3 c 0,0 3.5,-5.288 6.03,-7.022 2.177,-1.492 4.458,-2.57 7.095,-2.479 4.728,0.164 9.402,2.029 13.64,4.131 6.336,3.144 18.635,12.067 18.635,12.067 l 4.476,4.052 0.5,5.25 -3.125,0.375 -1.75,-4.75 -2,-3.375 c 0,0 -6.968,-5.17 -11.372,-7.646 -3.704,-2.082 -8.875,-4.681 -12.878,-6.104 -2.21,-0.785 -4.53,-1.58 -6.875,-1.5 -2.082,0.072 -4.312,0.529 -6,1.75 -2.743,1.986 -4.866,4.398 -5.75,8.375 -0.53,-1.414 -0.625,-3.125 -0.625,-3.125"
       style="opacity:0.296;fill:url(#h);fill-opacity:1;fill-rule:evenodd;stroke:none;stroke-width:0.213717;stroke-linecap:butt;stroke-linejoin:miter;stroke-miterlimit:4;stroke-dasharray:none;stroke-opacity:1"
       transform="translate(3.543,2.759)"
       id="path100" />
    <path
       d="m 45.75,47.8 c 0,0 2.812,0.022 5.44,1.747 -3.524,5.423 -4.594,19.087 -3.94,25.127 0.49,4.534 4.287,11.097 6.92,16.224 3.35,6.523 7.81,11.511 6.83,11.651 0,0 -4.582,-2.435 -8.125,-7 -3.543,-4.565 -7.524,-14.701 -9.25,-21 C 41.899,68.25 40.974,62.677 41,58.8 c 0.026,-3.877 1.132,-6.144 2.125,-8 0.993,-1.856 2.625,-3 2.625,-3"
       style="opacity:0.235;fill:url(#i);fill-opacity:1;fill-rule:evenodd;stroke:none;stroke-width:0.213717;stroke-linecap:butt;stroke-linejoin:miter;stroke-miterlimit:4;stroke-dasharray:none;stroke-opacity:1"
       transform="translate(3.543,2.759)"
       id="path101" />
    <path
       d="m 41.625,37.174 -0.5,8.125 c 0,0 -2.875,-0.875 -3.25,-1.75 -0.375,-0.875 -4.5,-4.625 -4.5,-4.625 0.691,-2.206 6.142,1.002 6.5,-2.75 z"
       style="opacity:0.32;fill:url(#j);fill-opacity:1;fill-rule:evenodd;stroke:none;stroke-width:0.213717;stroke-linecap:butt;stroke-linejoin:miter;stroke-miterlimit:4;stroke-dasharray:none;stroke-opacity:1"
       transform="translate(3.543,2.759)"
       id="path102" />
    <path
       d="m 29,30.445 c -8.124,0.153 -15.24,6.201 -17.964,13.913 -1.5,4.246 -2.548,8.581 -4.36,12.67 -1.517,3.426 -4.794,6.12 -5.935,9.59 -0.596,3.597 -0.8,6.646 -0.726,9.305 1.392,2.057 3.669,2.123 5.593,1.791 0.204,-2.49 0.01,-4.675 0.567,-7.081 1.21,-2.481 2.375,-4.35 4.303,-6.457 4.222,-4.616 5.071,-11.019 7.983,-16.488 2.084,-3.913 5.276,-8.437 9.868,-8.506 2.526,-0.039 7.983,1.29 7.564,3.83 -4.721,2.44 -8.775,6.217 -10.506,11.447 -3.177,9.598 -1.763,20.312 3.716,28.741 2.784,4.283 5.56,8.644 7.077,13.576 3.496,0.636 6.756,-2.872 3.99,-5.893 -1.73,-4.739 -0.293,-9.781 0.18,-14.617 0.242,-2.47 0.33,-10.147 0.357,-13.289 1.988,11.683 6.23,27.425 13.998,36.48 1.239,1.444 2.33,2.88 4.813,3.644 2.615,0.805 4.151,2.515 5.078,2.41 1.754,-2.033 2.308,-1.09 4.249,-0.687 1.978,-3.656 4.184,-8.979 3.89,-13.387 -0.706,-10.596 -4.903,-19.738 -6.31,-30.688 -0.28,-2.172 -2.945,-7.846 0.99,-4.904 2.48,1.855 6.125,1.197 8.412,3.55 l 3.594,3.698 c 1.955,0.143 3.873,0.155 5.302,-1.548 -3.32,-4.26 -7.292,-8.138 -9.748,-12.972 8.607,3.207 16.766,7.759 23.763,13.718 1.477,1.934 1.598,4.644 2.488,6.914 0.112,2.267 5.015,0.106 5.073,-0.988 -0.874,-3.98 -1.814,-8.053 -4.49,-11.358 -4.423,-5.46 -9.06,-10.86 -15.364,-14.204 -4.188,-2.222 -9.855,-3.854 -14.656,-2.396 -0.216,-6.47 -10.237,-5.686 -11.439,0.098 -0.705,2.781 2.84,1.179 2.634,-1.15 1.249,-3.373 8.678,-1.528 6.953,0.248 -3.35,-1.354 -3.014,1.935 -2.933,3.12 2.832,-1.18 6.43,-1.419 9.92,-1.473 5.732,-0.088 10.795,4.005 15.136,7.518 4.194,3.394 7.23,8.066 10.349,12.455 0.83,1.169 1.737,2.41 1.658,4.036 -0.082,1.691 -1.426,1.095 -2.715,0.233 -0.71,-2.214 -1.005,-2.99 -2.363,-5.376 -7.555,-5.963 -18.073,-11.25 -25.11,-14.265 -7.037,-3.014 -11.268,-1.383 -15.77,2.436 -2.201,1.867 -3.465,7.365 -3.81,7.294 -0.67,-4.398 -3.26,-9.168 -8.32,-9.05 -2.363,0.055 -5.982,-1.469 -5.987,-3.101 -0.87,-0.843 -1.644,-1.278 -2.327,-2.388 -1.87,-3.042 -6.591,-4.199 -10.252,-3.787 -5.67,0.637 -9.03,5.406 -11.427,10.303 -2.876,5.875 -4.278,13.021 -9.433,17.493 -0.954,2.594 -2.819,3.704 -2.51,6.598 0.428,1.601 -1.44,3.212 -2.379,1.01 l 0.95,-6.027 c 3.49,-4.756 6.509,-9.815 8.03,-15.67 1.553,-5.972 3.861,-12.717 9.609,-16.117 4.544,-2.689 9.793,-3.495 14.83,-1.77 3.47,1.188 4.225,5.507 6.544,6.201 0.017,-3.042 -2.086,-5.116 -4.226,-6.361 -2.524,-1.469 -5.473,-2.377 -8.4,-2.322 M 37.172,44.4 c 1.584,2.057 6.525,1.414 6.913,3.962 -4.039,3.841 -4.056,9.585 -4.76,14.715 -0.687,5.014 -0.112,9.997 -0.714,15.032 -0.588,4.929 -1.747,8.413 0.69,13.112 -0.434,1.627 -2.403,1.97 -2.945,1.427 -1.122,-1.121 -1.427,-3.617 -2.45,-4.822 -4.347,-6.66 -8.635,-14.003 -8.492,-22.248 0.122,-7.05 1.895,-15.284 8.473,-19.156 1.108,-0.652 2.164,-1.392 3.285,-2.022 m 28.092,1.924 c -2.432,2.8 -5.886,9.917 -5.43,13.15 1.073,-1.744 1.763,-4.008 3.145,-6.51 0.862,8.363 3.174,19.177 5.514,27.255 1.69,5.832 3.139,12.326 1.256,18.266 -0.769,2.426 -1.216,2.279 -3.026,1.068 -1.085,3.549 -6.743,1.942 -9.06,0.009 -6.114,-5.1 -8.125,-10.691 -11,-17.885 -2.957,-7.398 -4.924,-15.365 -5.043,-23.308 -0.056,-3.76 2.649,-11.155 7.113,-9.513 4.135,1.52 4.368,7.204 5.26,11.089 2.17,9.44 3.286,17.078 5.876,26.145 1.401,4.907 2.318,8.61 3.922,13.518 0.452,-0.33 -1.054,-6.877 -1.604,-9.103 C 59.5,79.612 57.443,71.842 55.845,60.771 c -0.688,-4.762 0.085,-8.964 4.467,-12.087 1.491,-1.062 3.116,-2.094 4.952,-2.36 m 2.869,-0.096 c 1.968,-0.18 4.147,0.58 5.131,1.7 0.893,2.43 2.686,4.046 4.003,6.236 1.293,2.147 1.902,2.883 3.478,4.83 -0.798,2.38 -1.413,1.56 -2.194,1.073 -0.74,-0.71 -0.977,-0.959 -2.376,-2.055 -1.418,-1.11 -2.894,-1.407 -4.067,-1.875 -2.716,-1.085 -6.52,-2.498 -8.5,-4.094 0.87,-2.43 2.809,-5.128 4.525,-5.815"
       style="color:#000000;font-style:normal;font-variant:normal;font-weight:400;font-stretch:normal;font-size:medium;line-height:normal;font-family:sans-serif;text-indent:0;text-align:start;text-decoration:none;text-decoration-line:none;text-decoration-style:solid;text-decoration-color:#000000;letter-spacing:normal;word-spacing:normal;text-transform:none;writing-mode:lr-tb;direction:ltr;baseline-shift:baseline;text-anchor:start;white-space:normal;clip-rule:nonzero;display:inline;overflow:visible;visibility:visible;opacity:1;isolation:auto;mix-blend-mode:normal;color-interpolation:sRGB;color-interpolation-filters:linearRGB;solid-color:#000000;solid-opacity:1;fill:#6c5353;fill-opacity:1;fill-rule:evenodd;stroke:none;stroke-width:1.30315;stroke-linecap:butt;stroke-linejoin:miter;stroke-miterlimit:4;stroke-dasharray:none;stroke-dashoffset:0;stroke-opacity:1;color-rendering:auto;image-rendering:auto;shape-rendering:auto;text-rendering:auto"
       transform="translate(3.543,2.759)"
       id="path103" />
    <path
       d="m 41.625,37.174 -0.5,8.125 c 0,0 -2.875,-0.875 -3.25,-1.75 -0.375,-0.875 -4.5,-4.625 -4.5,-4.625 0.691,-2.206 6.142,1.002 6.5,-2.75 z"
       style="opacity:0.32;fill:url(#k);fill-opacity:1;fill-rule:evenodd;stroke:none;stroke-width:0.213717;stroke-linecap:butt;stroke-linejoin:miter;stroke-miterlimit:4;stroke-dasharray:none;stroke-opacity:1"
       transform="translate(3.543,2.759)"
       id="path104" />
    <path
       d="m 64.767,0.872 c -4.001,0.25 -8.11,2.526 -11.055,5.077 -5.187,4.492 -8.918,11.434 -10.74,17.94 -1.391,4.974 -1.773,9.452 -2.559,14.571 -0.368,2.399 -0.282,3.096 0.05,5.687 0.301,0.551 1.12,1.202 1.711,1.216 -0.164,-6.174 0.295,-13.249 1.863,-19.043 1.874,-6.923 5.488,-13.239 10.922,-18.21 2.691,-2.462 5.842,-4.995 9.578,-5.344 2.267,-0.211 4.395,-10e-4 5.95,2.072 1.077,1.437 0.38,3.313 -0.177,4.734 -2.525,6.433 -5.593,11.884 -7.843,18.418 -1.29,3.745 -2.156,7.87 -2.576,11.834 -0.252,2.378 -0.578,3.53 0.192,5.737 0.512,-0.398 2.01,-0.113 1.418,-1.023 -1.678,-1.482 -0.435,-3.841 -0.081,-6.364 1.14,-8.135 4.845,-15.814 8.046,-23.094 1.374,-3.126 3,-5.862 3.956,-9.15 0.553,-1.904 -1.204,-3.692 -2.794,-4.449 -1.81,-0.862 -3.92,-0.73 -5.86,-0.609"
       style="color:#000000;font-style:normal;font-variant:normal;font-weight:400;font-stretch:normal;font-size:medium;line-height:normal;font-family:sans-serif;text-indent:0;text-align:start;text-decoration:none;text-decoration-line:none;text-decoration-style:solid;text-decoration-color:#000000;letter-spacing:normal;word-spacing:normal;text-transform:none;writing-mode:lr-tb;direction:ltr;baseline-shift:baseline;text-anchor:start;white-space:normal;clip-rule:nonzero;display:inline;overflow:visible;visibility:visible;opacity:1;isolation:auto;mix-blend-mode:normal;color-interpolation:sRGB;color-interpolation-filters:linearRGB;solid-color:#000000;solid-opacity:1;fill:#916f6f;fill-opacity:1;fill-rule:evenodd;stroke:none;stroke-width:1.30315;stroke-linecap:butt;stroke-linejoin:miter;stroke-miterlimit:4;stroke-dasharray:none;stroke-dashoffset:0;stroke-opacity:1;color-rendering:auto;image-rendering:auto;shape-rendering:auto;text-rendering:auto"
       transform="translate(3.543,2.759)"
       id="path105" />
  </g>
  <rect
     x="-3.1000004"
     y="-2.6375804"
     width="119.386"
     height="117.817"
     rx="14"
     fill="none"
     stroke="#6c5353"
     stroke-width="3.8"
     id="rect1" />
</svg>
