<svg xmlns="http://www.w3.org/2000/svg" viewBox="0 0 32 32" fill="none">
  <rect width="32" height="32" rx="4" fill="#1c1c1c"/>
  <!-- 5x5 grid: 5px tiles, 1px gap, rendered to suggest a Codenames board -->
  <rect x="3"  y="3"  width="5" height="5" rx="1" fill="#38a169"/>
  <rect x="9"  y="3"  width="5" height="5" rx="1" fill="#b4986e"/>
  <rect x="15" y="3"  width="5" height="5" rx="1" fill="#38a169"/>
  <rect x="21" y="3"  width="5" height="5" rx="1" fill="#b4986e"/>
  <rect x="27" y="3"  width="2" height="5" rx="1" fill="#38a169"/>

  <rect x="3"  y="9"  width="5" height="5" rx="1" fill="#b4986e"/>
  <rect x="9"  y="9"  width="5" height="5" rx="1" fill="#38a169"/>
  <rect x="15" y="9"  width="5" height="5" rx="1" fill="#b4986e"/>
  <rect x="21" y="9"  width="5" height="5" rx="1" fill="#38a169"/>
  <rect x="27" y="9"  width="2" height="5" rx="1" fill="#b4986e"/>

  <rect x="3"  y="15" width="5" height="5" rx="1" fill="#38a169"/>
  <rect x="9"  y="15" width="5" height="5" rx="1" fill="#000000"/>
  <rect x="15" y="15" width="5" height="5" rx="1" fill="#b4986e"/>
  <rect x="21" y="15" width="5" height="5" rx="1" fill="#38a169"/>
  <rect x="27" y="15" width="2" height="5" rx="1" fill="#b4986e"/>

  <rect x="3"  y="21" width="5" height="5" rx="1" fill="#b4986e"/>
  <rect x="9"  y="21" width="5" height="5" rx="1" fill="#38a169"/>
  <rect x="15" y="21" width="5" height="5" rx="1" fill="#b4986e"/>
  <rect x="21" y="21" width="5" height="5" rx="1" fill="#b4986e"/>
  <rect x="27" y="21" width="2" height="5" rx="1" fill="#38a169"/>

  <rect x="3"  y="27" width="5" height="2" rx="1" fill="#38a169"/>
  <rect x="9"  y="27" width="5" height="2" rx="1" fill="#b4986e"/>
  <rect x="15" y="27" width="5" height="2" rx="1" fill="#38a169"/>
  <rect x="21" y="27" width="5" height="2" rx="1" fill="#b4986e"/>
</svg>
