<!-- WordKnit logo — the Connections-style mark, moved from the
     `connections` project (packages/client/public/favicon.svg).
     WordKnit is our Connections-style game, so it carries the same
     icon. GameLogo renders this via <img>, so the path's black fill
     is what shows (currentColor wouldn't inherit through an <img>). -->
<svg version="1.0" width="285pt" height="277.5pt" viewBox="0 0 285 277.5"
     preserveAspectRatio="xMidYMid" xmlns="http://www.w3.org/2000/svg">
  <path
     d="M 123,2.5 C 85.8,7.4 49.1,30.6 28.1,62.5 4.3,98.6 -1.4,144 12.7,184.5 c 13.2,37.7 44.8,70 81.8,83.3 17,6.2 28.1,8.1 48,8.1 14.4,0 19.3,-0.4 27.8,-2.2 24.1,-5.3 44.7,-15.5 63.3,-31.5 l 5.7,-4.8 56.8,0.3 56.9,0.3 5.9,2.4 c 6.4,2.5 12.9,7.8 15.2,12.2 2.2,4.3 1.8,12 -0.9,16 -3.1,4.7 -9.9,9.5 -16,11.6 -4.7,1.5 -12,1.8 -69.7,2.3 -70.1,0.6 -65.6,0.2 -77.7,6.3 -10.2,5.2 -17.9,15.9 -19,26.2 -0.7,6.7 1.7,15 6,20.7 4.4,5.8 14.3,12.3 23,15 7.1,2.3 7.8,2.3 67,2.3 h 59.9 l 1.9,-2.4 c 2.4,-2.9 2.4,-5.3 0,-8.2 l -1.9,-2.4 -61.4,-0.5 -61.3,-0.5 -5.7,-2.8 c -6.7,-3.3 -12.2,-9.1 -13.8,-14.4 -2.6,-8.5 3.4,-17.8 14.9,-23.2 l 5.6,-2.6 65,-0.5 c 62.7,-0.6 65.2,-0.7 70.5,-2.7 13.7,-5.1 21.3,-11.3 25.8,-21.1 7,-15.3 -1.2,-33.9 -18.3,-41.8 -11.4,-5.3 -13.2,-5.4 -66.7,-5.4 -27.4,0 -49.8,-0.2 -49.8,-0.5 0,-0.3 2.2,-3.8 4.9,-7.8 C 278.6,183.5 285.8,142.4 276,104.7 269.4,79.7 257.7,59.5 239.1,41 212.9,15 179.2,1.3 142.2,1.6 134.9,1.7 126.3,2.1 123,2.5 Z M 162.4,16 c 0.6,0.6 0.2,4.3 -0.9,9.5 -10.1,45.4 -4.5,80.7 17.8,114.5 15.6,23.5 37.8,43 62.8,55 l 9.5,4.5 -3.7,5.8 c -4.1,6.4 -12.8,17.4 -16.9,21.2 l -2.6,2.5 -7.7,-4 C 148.2,187 109.5,106.2 125.1,25.6 c 0.9,-5.1 2.3,-9.1 3.3,-9.9 1.2,-1.1 5.3,-1.3 17.3,-1 8.7,0.2 16.2,0.8 16.7,1.3 z M 112,23.2 c -0.8,5.7 -3.4,9.1 -19.5,25.7 C 80.5,61.3 71.1,69.4 61,76.2 50,83.6 29.6,92.9 27.9,91.3 27,90.3 35.7,74.4 42.1,65.5 56.1,46 78.7,29.2 102,21.1 c 10.5,-3.7 10.9,-3.6 10,2.1 z m 77.6,0.4 c 7.4,2.8 22.9,11.5 25.8,14.4 1.1,1.1 1.1,2.7 -0.4,10.1 -2.3,11.5 -1.6,29.6 1.4,40.2 6.3,21.9 22.7,41.6 45.4,54.6 4.3,2.6 4.7,3.1 4.7,6.6 0,9.5 -6.8,35.6 -9.6,36.7 -2.1,0.8 -15.5,-5.9 -26.7,-13.3 C 199.3,152.3 177,119 170.9,84.5 c -2.6,-15.1 -0.6,-41.7 4.5,-60.8 1.4,-5.1 1.3,-5.1 14.2,-0.1 z M 246,69.5 c 6,9.1 10.9,19.2 14.6,30.1 3,9 5.9,22.8 5.9,28.2 v 2.8 l -3.2,-2.2 c -18.8,-12.9 -29.5,-26.9 -34.4,-44.9 -1.9,-7 -2.6,-28.8 -1.1,-32.5 0.8,-1.8 1.5,-1.3 7.3,4.9 3.5,3.7 8.4,9.9 10.9,13.6 z m -136.1,16 c 0.7,5.4 0.7,5.6 -4.2,12.5 -18.6,26.2 -43.8,45.8 -73.5,57.1 -11.3,4.3 -12.3,4.3 -13.1,0 -2,-10.8 0.4,-44.5 3.6,-48.3 0.6,-0.7 2.2,-1.3 3.5,-1.3 3.5,0 19,-5.3 26.5,-9.1 14.6,-7.3 32.6,-21 46.8,-35.3 l 8.5,-8.7 0.6,13.8 c 0.3,7.6 0.9,16.3 1.3,19.3 z m 15.6,56.4 4.4,10 -9,8.4 c -15.5,14.7 -33.2,27.2 -50.9,36 -11,5.4 -27.4,12.2 -29.7,12.2 -2.4,0 -16,-27.2 -17,-33.9 -0.3,-2.2 0.4,-2.7 7.7,-5.1 16.5,-5.5 32.7,-13.9 47.1,-24.5 9.4,-6.9 23.6,-20.5 30.7,-29.4 l 5,-6.3 3.7,11.3 c 2,6.3 5.6,15.9 8,21.3 z m 15.9,28.9 c 7.6,11.4 14.2,19.3 25.8,30.9 5.9,5.9 10.4,11 10.1,11.3 -1.1,1.1 -14.6,5.4 -21,6.6 -7.9,1.5 -26.7,1.5 -33.3,0 -8.7,-2 -18.3,-6.1 -25.9,-11.1 -4,-2.6 -7.6,-5.3 -8,-5.8 -0.3,-0.6 3.8,-3.9 9.1,-7.4 10.2,-6.7 24.2,-18 32.8,-26.5 2.8,-2.8 5.1,-5 5.2,-5.1 0.1,-0.1 2.5,3.1 5.2,7.1 z m -59.1,43.3 c 8.1,6.7 23.8,14.6 34.6,17.4 18.2,4.6 37.7,3.4 58.1,-3.7 5.5,-1.9 11.4,-3.9 13.1,-4.5 2.8,-0.9 3.7,-0.6 11.5,4.5 4.6,3 10.3,6.4 12.7,7.6 2.3,1.2 4.2,2.5 4.2,3 0,1.2 -9.5,7.3 -17.8,11.5 -9.8,4.9 -18,7.9 -29.2,10.6 -12.8,3.1 -38.2,3.4 -51,0.6 -18.1,-3.9 -36.2,-12 -49.6,-21.9 -7.4,-5.5 -21.1,-18.4 -20.3,-19.1 0.2,-0.2 5.1,-2.2 10.9,-4.5 5.8,-2.3 11.6,-4.8 13,-5.6 1.4,-0.8 2.6,-1.4 2.8,-1.5 0.1,0 3.3,2.5 7,5.6 z"
     id="path1"
     style="fill:#000000;stroke:none;stroke-width:0.1" />
</svg>
