<?xml version="1.0" encoding="UTF-8" standalone="no"?>
<!-- Created with Inkscape (http://www.inkscape.org/) -->

<svg
   width="5.5187197mm"
   height="5.349803mm"
   viewBox="0 0 5.5187197 5.349803"
   version="1.1"
   id="svg1"
   xmlns="http://www.w3.org/2000/svg"
   xmlns:svg="http://www.w3.org/2000/svg">
  <defs
     id="defs1" />
  <g
     id="layer1"
     transform="translate(-23.812498,-280.1938)">
    <g
       id="g19-0"
       transform="rotate(4,-1648.7711,34.507182)"
       style="fill:#d35fbc">
      <path
         style="font-weight:900;font-stretch:condensed;font-size:26.6667px;font-family:'Noto Sans Mono Condensed';-inkscape-font-specification:'Noto Sans Mono Condensed, Heavy Condensed';white-space:pre;fill:#d35fbc;stroke:#2a2a2a;stroke-width:0.755906;stroke-linejoin:round;stroke-dasharray:none"
         d="m 157.429,634.38678 q -1.06667,0 -1.73334,-0.58667 -0.66667,-0.58666 -0.66667,-1.78667 0,-1.17333 0.64001,-1.76 0.64,-0.61333 1.76,-0.61333 1.06667,0 1.70667,0.58667 0.66666,0.58666 0.66666,1.78666 0,1.20001 -0.66666,1.78667 -0.66667,0.58667 -1.70667,0.58667 z"
         transform="scale(0.26458333)"
         id="path6-2" />
      <path
         style="font-weight:900;font-stretch:condensed;font-size:26.6667px;font-family:'Noto Sans Mono Condensed';-inkscape-font-specification:'Noto Sans Mono Condensed, Heavy Condensed';white-space:pre;fill:#d35fbc;stroke:#2a2a2a;stroke-width:0.755906;stroke-linejoin:round;stroke-dasharray:none"
         d="m 155.64233,627.56011 -0.64,-12.50669 h 4.85334 l -0.61334,12.50669 z"
         transform="scale(0.26458333)"
         id="path5-3" />
    </g>
    <g
       id="g18-7"
       transform="rotate(-3,2273.4149,316.87539)">
      <path
         style="font-weight:900;font-stretch:condensed;font-size:26.6667px;font-family:'Noto Sans Mono Condensed';-inkscape-font-specification:'Noto Sans Mono Condensed, Heavy Condensed';white-space:pre;fill:#ff0000;stroke:#2a2a2a;stroke-width:0.755906;stroke-linejoin:round;stroke-dasharray:none"
         d="m 109.24222,634.09345 v -19.04003 h 5.92 q 3.17334,0 4.66668,1.57334 1.52,1.57333 1.52,4.50667 0,1.84 -0.64,3.33334 -0.61334,1.46667 -2.00001,2.32 -1.36,0.82667 -3.65333,0.82667 h -1.60001 v 6.48001 z"
         transform="scale(0.26458333)"
         id="path2-03" />
      <path
         style="font-weight:900;font-stretch:condensed;font-size:26.6667px;font-family:'Noto Sans Mono Condensed';-inkscape-font-specification:'Noto Sans Mono Condensed, Heavy Condensed';white-space:pre;fill:#ffffff;stroke:#2a2a2a;stroke-width:0.755906;stroke-linejoin:round;stroke-dasharray:none"
         d="m 114.62889,624.01343 q 0.90667,0 1.46667,-0.29333 0.58666,-0.32 0.85333,-0.93333 0.26667,-0.61334 0.26667,-1.49334 0,-1.33333 -0.58667,-2 -0.58667,-0.66667 -1.76,-0.66667 h -1.41334 v 5.38667 z"
         transform="scale(0.26458333)"
         id="text1-9" />
    </g>
  </g>
</svg>
